<svg width="200" height="200" viewBox="0 0 200 200" fill="none" xmlns="http://www.w3.org/2000/svg">
<circle cx="100" cy="100" r="100" fill="#CF9581"/>
<path d="M47.2917 57.0164C45.8776 63.9745 49.6484 68.4276 57.6614 68.4276C64.0246 68.4276 64.2603 69.2626 70.6235 100.713C75.337 124.37 78.1651 133.555 81.2289 134.668C83.5857 135.782 95.3694 136.338 107.86 135.782L130.249 134.947L135.199 108.784C138.027 94.3116 139.676 81.2304 138.734 79.5605C137.791 77.8906 125.536 76.7773 108.332 76.7773H79.5792L77.2224 64.8094L75.1014 53.1199L61.9035 52.2849C50.3555 51.4499 48.4701 52.2849 47.2917 57.0164ZM123.415 95.1466C123.415 97.3731 122.236 104.888 120.822 111.846L118.23 124.092H103.382H88.5349L85.9424 110.176C84.5284 102.383 83.35 94.8682 83.35 93.4766C83.35 91.8067 92.3057 90.6934 103.382 90.6934C119.88 90.6934 123.415 91.5284 123.415 95.1466Z" fill="black"/>
<path d="M180.331 66.3253C187.271 80.2068 191.301 101.246 189.51 112.958C188.614 117.947 187.271 120.984 186.599 119.682C185.704 118.598 179.659 124.888 172.942 133.997C150.553 163.929 126.597 176.726 92.3426 176.943C81.8198 176.943 72.6404 177.811 71.7449 178.895C71.0732 179.98 67.7149 181.064 64.3566 181.281C58.9832 181.498 58.7594 181.281 62.5655 178.461C66.1477 175.642 65.9238 175.642 59.2071 176.943C49.8038 178.895 43.9827 174.991 48.0127 169.569C50.2516 166.749 50.2516 166.532 47.565 168.701C43.535 172.171 39.9528 172.388 42.1916 168.918C43.3111 167.4 42.8633 167.183 41.0722 168.05C39.2811 169.352 38.6094 168.484 39.0572 165.881C39.505 163.495 38.6094 161.977 37.0422 162.194C33.46 162.845 21.5939 146.144 16.8923 134.214C14.6534 128.358 13.3101 117.73 13.3101 106.451C13.0862 91.4854 14.2056 85.4123 18.9073 74.5674C22.0417 66.976 23.8328 61.5535 22.7134 61.9873C19.8028 63.9394 12.4145 85.1954 10.6234 96.9079C7.04122 122.719 19.1312 152.868 40.8483 172.171C56.5205 186.27 73.0882 193.21 94.8053 194.729C159.061 199.501 207.869 140.504 188.838 81.2912C186.376 73.0491 182.122 63.9394 179.659 60.9029C175.629 56.1311 175.853 56.7818 180.331 66.3253ZM163.315 161.977C164.658 165.881 154.583 175.642 148.538 176.292C140.478 177.16 140.255 172.388 148.091 164.797C154.807 158.29 161.748 157.205 163.315 161.977Z" fill="black"/>
</svg>
