<svg width="200" height="200" viewBox="0 0 200 200" fill="none" xmlns="http://www.w3.org/2000/svg">
<circle cx="100" cy="100" r="100" fill="#CF9581"/>
<path d="M180.331 66.3253C187.271 80.2068 191.301 101.246 189.51 112.958C188.614 117.947 187.271 120.984 186.599 119.682C185.704 118.598 179.659 124.888 172.942 133.997C150.553 163.929 126.597 176.726 92.3426 176.943C81.8198 176.943 72.6404 177.811 71.7449 178.895C71.0732 179.98 67.7149 181.064 64.3566 181.281C58.9832 181.498 58.7594 181.281 62.5655 178.461C66.1477 175.642 65.9238 175.642 59.2071 176.943C49.8038 178.895 43.9827 174.991 48.0127 169.569C50.2516 166.749 50.2516 166.532 47.565 168.701C43.535 172.171 39.9528 172.388 42.1916 168.918C43.3111 167.4 42.8633 167.183 41.0722 168.05C39.2811 169.352 38.6094 168.484 39.0572 165.881C39.505 163.495 38.6094 161.977 37.0422 162.194C33.46 162.845 21.5939 146.144 16.8923 134.214C14.6534 128.358 13.3101 117.73 13.3101 106.451C13.0862 91.4854 14.2056 85.4123 18.9073 74.5674C22.0417 66.976 23.8328 61.5535 22.7134 61.9873C19.8028 63.9394 12.4145 85.1954 10.6234 96.9079C7.04122 122.719 19.1312 152.868 40.8483 172.171C56.5205 186.27 73.0882 193.21 94.8053 194.729C159.061 199.501 207.869 140.504 188.838 81.2912C186.376 73.0491 182.122 63.9394 179.659 60.9029C175.629 56.1311 175.853 56.7818 180.331 66.3253ZM163.315 161.977C164.658 165.881 154.583 175.642 148.538 176.292C140.478 177.16 140.255 172.388 148.091 164.797C154.807 158.29 161.748 157.205 163.315 161.977Z" fill="black"/>
<path d="M85.38 70.5941C78.1336 74.6659 75 79.478 75 86.141C75 97.0608 91.0596 95.9503 94.1932 85.0305C95.9558 78.5526 100.852 76.7018 102.027 82.2542C102.419 83.92 100.46 89.2874 97.7184 93.9144C92.0388 103.354 91.4513 107.611 94.9765 110.942C98.8935 114.644 102.615 113.533 110.253 106.13C114.17 102.428 119.653 97.8011 122.591 95.9503C128.271 92.4338 129.642 84.6603 125.921 77.9974C120.045 67.6327 97.7184 63.3759 85.38 70.5941Z" fill="black"/>
<path d="M93.5357 124.056C88.5526 131.122 96.5256 139.122 104.926 135.522C113.184 132.056 110.051 120.589 100.797 120.589C97.0951 120.589 95.2442 121.389 93.5357 124.056Z" fill="black"/>
</svg>
