<svg width="200" height="200" viewBox="0 0 200 200" fill="none" xmlns="http://www.w3.org/2000/svg">
<circle cx="100" cy="100" r="100" fill="#CF9581"/>
<path d="M180.331 66.3253C187.271 80.2068 191.301 101.246 189.51 112.958C188.614 117.947 187.271 120.984 186.599 119.682C185.704 118.598 179.659 124.888 172.942 133.997C150.553 163.929 126.597 176.726 92.3426 176.943C81.8198 176.943 72.6404 177.811 71.7449 178.895C71.0732 179.98 67.7149 181.064 64.3566 181.281C58.9832 181.498 58.7594 181.281 62.5655 178.461C66.1477 175.642 65.9238 175.642 59.2071 176.943C49.8038 178.895 43.9827 174.991 48.0127 169.569C50.2516 166.749 50.2516 166.532 47.565 168.701C43.535 172.171 39.9528 172.388 42.1916 168.918C43.3111 167.4 42.8633 167.183 41.0722 168.05C39.2811 169.352 38.6094 168.484 39.0572 165.881C39.505 163.495 38.6094 161.977 37.0422 162.194C33.46 162.845 21.5939 146.144 16.8923 134.214C14.6534 128.358 13.3101 117.73 13.3101 106.451C13.0862 91.4854 14.2056 85.4123 18.9073 74.5674C22.0417 66.976 23.8328 61.5535 22.7134 61.9873C19.8028 63.9394 12.4145 85.1954 10.6234 96.9079C7.04122 122.719 19.1312 152.868 40.8483 172.171C56.5205 186.27 73.0882 193.21 94.8053 194.729C159.061 199.501 207.869 140.504 188.838 81.2912C186.376 73.0491 182.122 63.9394 179.659 60.9029C175.629 56.1311 175.853 56.7818 180.331 66.3253ZM163.315 161.977C164.658 165.881 154.583 175.642 148.538 176.292C140.478 177.16 140.255 172.388 148.091 164.797C154.807 158.29 161.748 157.205 163.315 161.977Z" fill="black"/>
<path d="M107.737 129.673C121.642 122.529 142.29 107.834 143.765 103.956C145.661 99.2614 135.969 89.2603 119.535 78.851C110.686 73.1361 101.205 68.0335 98.4661 67.4212C91.9347 65.5843 87.5102 69.8705 87.5102 78.0346V84.9741H74.2368C66.6519 84.9741 59.9098 85.9946 58.435 87.4234C55.696 90.0767 55.0639 109.058 57.5922 112.936C58.435 114.365 65.1771 115.59 72.7619 115.998L86.4568 116.61L87.5102 123.754C88.9851 131.714 91.092 136 93.6203 136C94.6737 136 100.994 133.143 107.737 129.673Z" fill="black"/>
</svg>
