<svg width="850" height="200" viewBox="0 0 850 200" fill="none" xmlns="http://www.w3.org/2000/svg">
<rect width="850" height="200" rx="12" fill="#019A32"/>
<path d="M354.271 34.7239L838.733 23.8994V192.453C737.926 192.453 826.096 127.506 505.929 159.979C185.761 192.453 500.649 105.09 354.271 34.7239Z" fill="white" fill-opacity="0.69"/>
<path d="M468.904 84.6238H471.728L477.376 94.1295H477.615L483.262 84.6238H486.086L478.728 96.5954V104.987H476.262V96.5954L468.904 84.6238ZM493.002 105.306C491.623 105.306 490.413 104.977 489.372 104.321C488.338 103.665 487.53 102.747 486.946 101.567C486.37 100.387 486.081 99.0083 486.081 97.4306C486.081 95.8397 486.37 94.451 486.946 93.2644C487.53 92.0779 488.338 91.1565 489.372 90.5002C490.413 89.844 491.623 89.5158 493.002 89.5158C494.38 89.5158 495.587 89.844 496.621 90.5002C497.662 91.1565 498.47 92.0779 499.047 93.2644C499.63 94.451 499.922 95.8397 499.922 97.4306C499.922 99.0083 499.63 100.387 499.047 101.567C498.47 102.747 497.662 103.665 496.621 104.321C495.587 104.977 494.38 105.306 493.002 105.306ZM493.002 103.198C494.049 103.198 494.911 102.929 495.587 102.392C496.263 101.855 496.764 101.149 497.088 100.274C497.413 99.3994 497.576 98.4514 497.576 97.4306C497.576 96.4098 497.413 95.4585 497.088 94.5769C496.764 93.6953 496.263 92.9827 495.587 92.4391C494.911 91.8956 494.049 91.6238 493.002 91.6238C491.954 91.6238 491.093 91.8956 490.416 92.4391C489.74 92.9827 489.24 93.6953 488.915 94.5769C488.59 95.4585 488.428 96.4098 488.428 97.4306C488.428 98.4514 488.59 99.3994 488.915 100.274C489.24 101.149 489.74 101.855 490.416 102.392C491.093 102.929 491.954 103.198 493.002 103.198ZM513.129 98.7431V89.7147H515.476V104.987H513.129V102.402H512.97C512.612 103.178 512.055 103.837 511.3 104.381C510.544 104.918 509.589 105.186 508.436 105.186C507.481 105.186 506.633 104.977 505.891 104.56C505.148 104.136 504.565 103.499 504.141 102.651C503.716 101.796 503.504 100.718 503.504 99.4192V89.7147H505.851V99.2602C505.851 100.374 506.162 101.262 506.785 101.925C507.415 102.588 508.217 102.919 509.192 102.919C509.775 102.919 510.368 102.77 510.972 102.472C511.581 102.174 512.092 101.716 512.503 101.1C512.92 100.483 513.129 99.6977 513.129 98.7431ZM532.143 105.345C531.175 105.345 530.297 105.163 529.508 104.799C528.719 104.427 528.093 103.894 527.629 103.198C527.165 102.495 526.933 101.647 526.933 100.652C526.933 99.7772 527.105 99.0679 527.45 98.5244C527.795 97.9742 528.255 97.5433 528.832 97.2317C529.409 96.9202 530.045 96.6882 530.741 96.5357C531.444 96.3766 532.15 96.2507 532.859 96.1579C533.787 96.0386 534.539 95.9491 535.116 95.8894C535.699 95.8231 536.124 95.7138 536.389 95.5613C536.661 95.4088 536.796 95.1437 536.796 94.7658V94.6863C536.796 93.7052 536.528 92.9429 535.991 92.3994C535.461 91.8558 534.655 91.584 533.575 91.584C532.455 91.584 531.576 91.8293 530.94 92.3198C530.304 92.8103 529.856 93.334 529.598 93.8908L527.37 93.0954C527.768 92.1674 528.298 91.4448 528.961 90.9278C529.631 90.4041 530.36 90.0395 531.149 89.834C531.944 89.6219 532.726 89.5158 533.495 89.5158C533.986 89.5158 534.549 89.5755 535.186 89.6948C535.829 89.8075 536.448 90.0428 537.045 90.4008C537.648 90.7587 538.149 91.299 538.546 92.0215C538.944 92.7441 539.143 93.7119 539.143 94.9249V104.987H536.796V102.919H536.677C536.518 103.251 536.253 103.605 535.882 103.983C535.51 104.361 535.017 104.683 534.4 104.948C533.784 105.213 533.031 105.345 532.143 105.345ZM532.501 103.237C533.429 103.237 534.211 103.055 534.848 102.691C535.491 102.326 535.974 101.855 536.299 101.279C536.631 100.702 536.796 100.095 536.796 99.459V97.3113C536.697 97.4306 536.478 97.54 536.14 97.6394C535.809 97.7322 535.424 97.8151 534.987 97.888C534.556 97.9543 534.135 98.0139 533.724 98.067C533.32 98.1134 532.992 98.1531 532.74 98.1863C532.13 98.2658 531.56 98.3951 531.029 98.5741C530.506 98.7464 530.081 99.0083 529.757 99.3596C529.438 99.7043 529.279 100.175 529.279 100.772C529.279 101.587 529.581 102.203 530.184 102.621C530.794 103.032 531.566 103.237 532.501 103.237ZM543.426 104.987V89.7147H545.693V92.0215H545.852C546.131 91.2658 546.634 90.6527 547.364 90.182C548.093 89.7114 548.915 89.4761 549.829 89.4761C550.002 89.4761 550.217 89.4794 550.476 89.486C550.734 89.4926 550.93 89.5026 551.062 89.5158V91.9022C550.983 91.8823 550.801 91.8525 550.516 91.8127C550.237 91.7663 549.942 91.7431 549.631 91.7431C548.888 91.7431 548.225 91.8989 547.642 92.2104C547.065 92.5154 546.608 92.9396 546.27 93.4832C545.938 94.0201 545.773 94.6333 545.773 95.3227V104.987H543.426ZM559.783 105.306C558.311 105.306 557.042 104.981 555.974 104.331C554.914 103.675 554.095 102.76 553.518 101.587C552.948 100.407 552.663 99.0348 552.663 97.4704C552.663 95.906 552.948 94.5272 553.518 93.334C554.095 92.1342 554.897 91.1995 555.925 90.53C556.959 89.8539 558.165 89.5158 559.544 89.5158C560.339 89.5158 561.125 89.6484 561.9 89.9136C562.676 90.1787 563.382 90.6096 564.018 91.2062C564.655 91.7961 565.162 92.5783 565.54 93.5528C565.918 94.5272 566.106 95.727 566.106 97.1522V98.1465H554.334V96.1181H563.72C563.72 95.2564 563.548 94.4874 563.203 93.8113C562.865 93.1352 562.381 92.6015 561.751 92.2104C561.128 91.8193 560.392 91.6238 559.544 91.6238C558.609 91.6238 557.801 91.8558 557.118 92.3198C556.442 92.7772 555.921 93.3738 555.557 94.1096C555.192 94.8454 555.01 95.6342 555.01 96.4761V97.8283C555.01 98.9817 555.209 99.9595 555.606 100.762C556.011 101.557 556.571 102.164 557.287 102.581C558.003 102.992 558.835 103.198 559.783 103.198C560.399 103.198 560.956 103.111 561.453 102.939C561.957 102.76 562.391 102.495 562.756 102.144C563.12 101.786 563.402 101.342 563.601 100.811L565.868 101.448C565.629 102.217 565.228 102.893 564.665 103.476C564.101 104.053 563.405 104.504 562.577 104.828C561.748 105.147 560.817 105.306 559.783 105.306ZM583.716 111.033C582.582 111.033 581.608 110.887 580.793 110.595C579.977 110.31 579.298 109.933 578.754 109.462C578.217 108.998 577.79 108.501 577.472 107.97L579.341 106.658C579.553 106.936 579.821 107.254 580.146 107.612C580.471 107.977 580.915 108.292 581.479 108.557C582.049 108.829 582.794 108.965 583.716 108.965C584.949 108.965 585.966 108.666 586.768 108.07C587.57 107.473 587.972 106.539 587.972 105.266V102.164H587.773C587.6 102.442 587.355 102.787 587.037 103.198C586.725 103.602 586.275 103.963 585.685 104.281C585.101 104.593 584.312 104.749 583.318 104.749C582.085 104.749 580.978 104.457 579.997 103.874C579.023 103.29 578.25 102.442 577.68 101.328C577.117 100.215 576.835 98.8624 576.835 97.2715C576.835 95.7071 577.11 94.3449 577.66 93.1849C578.211 92.0182 578.976 91.1167 579.957 90.4803C580.938 89.8373 582.072 89.5158 583.358 89.5158C584.352 89.5158 585.141 89.6816 585.724 90.013C586.314 90.3378 586.765 90.709 587.077 91.1266C587.395 91.5376 587.64 91.8757 587.812 92.1408H588.051V89.7147H590.318V105.425C590.318 106.737 590.02 107.805 589.423 108.627C588.833 109.455 588.038 110.062 587.037 110.446C586.043 110.837 584.936 111.033 583.716 111.033ZM583.636 102.641C584.578 102.641 585.373 102.425 586.023 101.995C586.672 101.564 587.166 100.944 587.504 100.135C587.842 99.3264 588.011 98.3586 588.011 97.2317C588.011 96.1314 587.846 95.1602 587.514 94.3184C587.183 93.4765 586.692 92.817 586.043 92.3397C585.393 91.8624 584.591 91.6238 583.636 91.6238C582.642 91.6238 581.813 91.8757 581.15 92.3795C580.494 92.8833 580 93.5594 579.669 94.4079C579.344 95.2564 579.182 96.1977 579.182 97.2317C579.182 98.2924 579.347 99.2303 579.679 100.046C580.017 100.854 580.514 101.491 581.17 101.955C581.833 102.412 582.655 102.641 583.636 102.641ZM600.818 105.306C599.439 105.306 598.23 104.977 597.189 104.321C596.155 103.665 595.346 102.747 594.763 101.567C594.186 100.387 593.898 99.0083 593.898 97.4306C593.898 95.8397 594.186 94.451 594.763 93.2644C595.346 92.0779 596.155 91.1565 597.189 90.5002C598.23 89.844 599.439 89.5158 600.818 89.5158C602.197 89.5158 603.403 89.844 604.437 90.5002C605.478 91.1565 606.287 92.0779 606.864 93.2644C607.447 94.451 607.739 95.8397 607.739 97.4306C607.739 99.0083 607.447 100.387 606.864 101.567C606.287 102.747 605.478 103.665 604.437 104.321C603.403 104.977 602.197 105.306 600.818 105.306ZM600.818 103.198C601.865 103.198 602.727 102.929 603.403 102.392C604.079 101.855 604.58 101.149 604.905 100.274C605.23 99.3994 605.392 98.4514 605.392 97.4306C605.392 96.4098 605.23 95.4585 604.905 94.5769C604.58 93.6953 604.079 92.9827 603.403 92.4391C602.727 91.8956 601.865 91.6238 600.818 91.6238C599.771 91.6238 598.909 91.8956 598.233 92.4391C597.557 92.9827 597.056 93.6953 596.731 94.5769C596.407 95.4585 596.244 96.4098 596.244 97.4306C596.244 98.4514 596.407 99.3994 596.731 100.274C597.056 101.149 597.557 101.855 598.233 102.392C598.909 102.929 599.771 103.198 600.818 103.198ZM611.321 104.987V89.7147H613.667V104.987H611.321ZM612.514 87.1692C612.056 87.1692 611.662 87.0135 611.331 86.7019C611.006 86.3904 610.843 86.0158 610.843 85.5783C610.843 85.1408 611.006 84.7663 611.331 84.4548C611.662 84.1432 612.056 83.9874 612.514 83.9874C612.971 83.9874 613.362 84.1432 613.687 84.4548C614.018 84.7663 614.184 85.1408 614.184 85.5783C614.184 86.0158 614.018 86.3904 613.687 86.7019C613.362 87.0135 612.971 87.1692 612.514 87.1692ZM620.312 95.7999V104.987H617.965V89.7147H620.232V92.1011H620.431C620.789 91.3255 621.333 90.7024 622.062 90.2317C622.791 89.7545 623.732 89.5158 624.886 89.5158C625.92 89.5158 626.824 89.728 627.6 90.1522C628.376 90.5698 628.979 91.2062 629.41 92.0613C629.841 92.9098 630.056 93.9836 630.056 95.2829V104.987H627.709V95.442C627.709 94.2422 627.398 93.3075 626.775 92.638C626.152 91.9619 625.297 91.6238 624.209 91.6238C623.46 91.6238 622.791 91.7862 622.201 92.111C621.618 92.4358 621.157 92.9098 620.819 93.5329C620.481 94.156 620.312 94.9117 620.312 95.7999ZM636.691 95.7999V104.987H634.344V89.7147H636.611V92.1011H636.81C637.168 91.3255 637.711 90.7024 638.441 90.2317C639.17 89.7545 640.111 89.5158 641.264 89.5158C642.299 89.5158 643.203 89.728 643.979 90.1522C644.755 90.5698 645.358 91.2062 645.789 92.0613C646.219 92.9098 646.435 93.9836 646.435 95.2829V104.987H644.088V95.442C644.088 94.2422 643.777 93.3075 643.154 92.638C642.531 91.9619 641.675 91.6238 640.588 91.6238C639.839 91.6238 639.17 91.7862 638.58 92.111C637.996 92.4358 637.536 92.9098 637.198 93.5329C636.86 94.156 636.691 94.9117 636.691 95.7999ZM656.888 111.033C655.754 111.033 654.78 110.887 653.964 110.595C653.149 110.31 652.47 109.933 651.926 109.462C651.389 108.998 650.962 108.501 650.643 107.97L652.513 106.658C652.725 106.936 652.993 107.254 653.318 107.612C653.643 107.977 654.087 108.292 654.65 108.557C655.221 108.829 655.966 108.965 656.888 108.965C658.121 108.965 659.138 108.666 659.94 108.07C660.742 107.473 661.143 106.539 661.143 105.266V102.164H660.945C660.772 102.442 660.527 102.787 660.209 103.198C659.897 103.602 659.446 103.963 658.856 104.281C658.273 104.593 657.484 104.749 656.49 104.749C655.257 104.749 654.15 104.457 653.169 103.874C652.195 103.29 651.422 102.442 650.852 101.328C650.289 100.215 650.007 98.8624 650.007 97.2715C650.007 95.7071 650.282 94.3449 650.832 93.1849C651.382 92.0182 652.148 91.1167 653.129 90.4803C654.11 89.8373 655.244 89.5158 656.53 89.5158C657.524 89.5158 658.313 89.6816 658.896 90.013C659.486 90.3378 659.937 90.709 660.248 91.1266C660.567 91.5376 660.812 91.8757 660.984 92.1408H661.223V89.7147H663.49V105.425C663.49 106.737 663.192 107.805 662.595 108.627C662.005 109.455 661.21 110.062 660.209 110.446C659.214 110.837 658.107 111.033 656.888 111.033ZM656.808 102.641C657.749 102.641 658.545 102.425 659.195 101.995C659.844 101.564 660.338 100.944 660.676 100.135C661.014 99.3264 661.183 98.3586 661.183 97.2317C661.183 96.1314 661.017 95.1602 660.686 94.3184C660.355 93.4765 659.864 92.817 659.214 92.3397C658.565 91.8624 657.763 91.6238 656.808 91.6238C655.814 91.6238 654.985 91.8757 654.322 92.3795C653.666 92.8833 653.172 93.5594 652.841 94.4079C652.516 95.2564 652.354 96.1977 652.354 97.2317C652.354 98.2924 652.519 99.2303 652.851 100.046C653.189 100.854 653.686 101.491 654.342 101.955C655.005 102.412 655.827 102.641 656.808 102.641ZM679.121 104.987L674.467 89.7147H676.933L680.234 101.408H680.393L683.655 89.7147H686.16L689.382 101.368H689.541L692.842 89.7147H695.308L690.655 104.987H688.348L685.007 93.2545H684.768L681.427 104.987H679.121ZM704.294 105.306C702.823 105.306 701.553 104.981 700.486 104.331C699.425 103.675 698.607 102.76 698.03 101.587C697.46 100.407 697.175 99.0348 697.175 97.4704C697.175 95.906 697.46 94.5272 698.03 93.334C698.607 92.1342 699.409 91.1995 700.436 90.53C701.47 89.8539 702.677 89.5158 704.056 89.5158C704.851 89.5158 705.637 89.6484 706.412 89.9136C707.188 90.1787 707.894 90.6096 708.53 91.2062C709.166 91.7961 709.674 92.5783 710.051 93.5528C710.429 94.5272 710.618 95.727 710.618 97.1522V98.1465H698.845V96.1181H708.232C708.232 95.2564 708.059 94.4874 707.715 93.8113C707.377 93.1352 706.893 92.6015 706.263 92.2104C705.64 91.8193 704.904 91.6238 704.056 91.6238C703.121 91.6238 702.312 91.8558 701.63 92.3198C700.953 92.7772 700.433 93.3738 700.068 94.1096C699.704 94.8454 699.522 95.6342 699.522 96.4761V97.8283C699.522 98.9817 699.72 99.9595 700.118 100.762C700.523 101.557 701.083 102.164 701.799 102.581C702.514 102.992 703.346 103.198 704.294 103.198C704.911 103.198 705.468 103.111 705.965 102.939C706.469 102.76 706.903 102.495 707.267 102.144C707.632 101.786 707.914 101.342 708.112 100.811L710.38 101.448C710.141 102.217 709.74 102.893 709.176 103.476C708.613 104.053 707.917 104.504 707.088 104.828C706.26 105.147 705.328 105.306 704.294 105.306ZM716.534 84.6238V104.987H714.188V84.6238H716.534ZM723.179 84.6238V104.987H720.832V84.6238H723.179ZM732.806 87.6465L729.704 83.0329H732.448L734.875 87.6465H732.806Z" fill="white"/>
<mask id="path-4-inside-1_5_231" fill="white">
<path d="M111.678 31.3988C90.5067 36.0271 76.0789 46.9666 72.0015 61.3773C71.2174 64.5329 70.4332 72.5272 70.4332 79.3644C70.4332 91.0402 70.2764 91.7765 66.5126 94.0906C64.3171 95.4581 62.592 97.0359 62.592 97.5618C62.592 98.0878 64.0035 97.3515 65.7285 95.8788C67.4536 94.4062 72.0015 91.9869 75.9221 90.5143C83.9201 87.3586 85.4884 85.7808 78.1176 88.3053L73.8834 73.8946C74.3538 60.115 74.8243 57.0646 77.804 52.8571C82.8223 45.3888 93.9569 38.0256 105.405 34.5545C113.874 31.9248 117.01 31.6092 130.026 31.6092C143.2 31.6092 145.866 31.9248 153.236 34.4493C163.587 38.1308 173.937 44.968 178.642 51.5948C181.621 55.6972 182.562 58.7476 182.876 66.2159C183.033 72.5272 182.719 74.8413 181.935 73.0531C181.151 71.5805 180.524 70.9494 180.367 71.4753C180.21 72.1064 177.858 73.3687 174.878 74.2102L169.546 75.8932L168.605 71.1597C168.135 68.5301 167.664 64.7433 167.664 62.6395C167.664 57.275 160.921 50.6482 152.766 47.9133C147.748 46.2303 143.2 45.7043 133.633 45.7043C120.774 45.7043 110.58 47.2822 112.148 48.9652C112.619 49.4911 111.835 49.5963 110.423 49.2807C106.66 48.334 93.6432 57.8009 91.134 63.1655C90.1931 65.5848 89.2521 71.1597 89.2521 75.6828C89.2521 82.2044 77.9608 89.4624 75.9221 90.5143C70.9565 93.0612 90.2902 85.1764 91.7613 84.5186C92.7023 83.9926 98.9752 82.7304 105.875 81.5733C112.619 80.4163 116.853 79.4696 115.128 79.4696C113.403 79.3644 170.017 81.8889 167.037 82.52L101.484 81.3629L102.112 71.4753C102.582 60.641 104.464 57.8009 114.344 53.2778C118.735 51.2793 121.558 50.9637 133.947 50.9637C151.198 50.9637 156.843 52.8571 162.646 60.4306C165.625 64.4277 166.096 66.5315 165.782 73.8946C165.469 79.7851 165.939 82.52 167.037 82.52C170.801 82.52 187.581 88.3053 195.579 92.3025L203.734 96.4048V115.128C203.734 134.272 201.852 142.477 196.206 146.895C194.952 147.842 194.481 149.209 195.265 149.945C195.892 150.682 195.736 150.997 194.795 150.576C194.011 150.261 189.776 152.259 185.542 155.205C181.308 158.15 174.094 161.937 169.546 163.725C164.998 165.408 161.548 167.196 162.018 167.406C162.489 167.722 164.684 167.196 166.723 166.249C168.919 165.303 171.271 164.566 171.898 164.566C173.31 164.566 158.725 170.878 157.314 170.878C156.686 170.878 157.314 170.036 158.412 168.984C160.45 167.406 160.293 167.301 157.941 168.669C156.373 169.405 155.432 170.352 155.746 170.772C156.216 171.193 154.177 172.14 151.511 172.876C148.688 173.613 144.454 174.98 141.945 175.716C135.515 177.715 132.536 177.61 120.774 174.454C95.2114 167.617 73.8834 156.257 66.8263 145.633C65.7285 144.16 64.6308 133.746 64.1603 120.913L63.2193 98.8241L62.9057 120.072C62.592 139.111 62.9057 141.741 65.7285 146.053C72.3151 156.362 92.7023 167.512 119.362 175.19C132.379 179.082 133.32 179.187 138.965 177.82C155.902 173.718 176.133 166.144 174.721 164.461C174.094 163.935 174.878 163.83 176.133 164.146C179.74 165.092 196.677 153.206 201.381 146.474C205.145 141.11 205.302 140.058 205.302 118.599V96.2996L200.754 93.8803L196.206 91.461L195.579 74.6309C195.108 58.958 194.795 57.3802 190.874 51.8052C185.542 44.2317 175.505 37.3945 163.744 33.6078C155.589 30.8729 152.766 30.5573 136.456 30.2418C124.067 30.0314 116.069 30.4521 111.678 31.3988Z"/>
</mask>
<path d="M111.678 31.3988C90.5067 36.0271 76.0789 46.9666 72.0015 61.3773C71.2174 64.5329 70.4332 72.5272 70.4332 79.3644C70.4332 91.0402 70.2764 91.7765 66.5126 94.0906C64.3171 95.4581 62.592 97.0359 62.592 97.5618C62.592 98.0878 64.0035 97.3515 65.7285 95.8788C67.4536 94.4062 72.0015 91.9869 75.9221 90.5143C83.9201 87.3586 85.4884 85.7808 78.1176 88.3053L73.8834 73.8946C74.3538 60.115 74.8243 57.0646 77.804 52.8571C82.8223 45.3888 93.9569 38.0256 105.405 34.5545C113.874 31.9248 117.01 31.6092 130.026 31.6092C143.2 31.6092 145.866 31.9248 153.236 34.4493C163.587 38.1308 173.937 44.968 178.642 51.5948C181.621 55.6972 182.562 58.7476 182.876 66.2159C183.033 72.5272 182.719 74.8413 181.935 73.0531C181.151 71.5805 180.524 70.9494 180.367 71.4753C180.21 72.1064 177.858 73.3687 174.878 74.2102L169.546 75.8932L168.605 71.1597C168.135 68.5301 167.664 64.7433 167.664 62.6395C167.664 57.275 160.921 50.6482 152.766 47.9133C147.748 46.2303 143.2 45.7043 133.633 45.7043C120.774 45.7043 110.58 47.2822 112.148 48.9652C112.619 49.4911 111.835 49.5963 110.423 49.2807C106.66 48.334 93.6432 57.8009 91.134 63.1655C90.1931 65.5848 89.2521 71.1597 89.2521 75.6828C89.2521 82.2044 77.9608 89.4624 75.9221 90.5143C70.9565 93.0612 90.2902 85.1764 91.7613 84.5186C92.7023 83.9926 98.9752 82.7304 105.875 81.5733C112.619 80.4163 116.853 79.4696 115.128 79.4696C113.403 79.3644 170.017 81.8889 167.037 82.52L101.484 81.3629L102.112 71.4753C102.582 60.641 104.464 57.8009 114.344 53.2778C118.735 51.2793 121.558 50.9637 133.947 50.9637C151.198 50.9637 156.843 52.8571 162.646 60.4306C165.625 64.4277 166.096 66.5315 165.782 73.8946C165.469 79.7851 165.939 82.52 167.037 82.52C170.801 82.52 187.581 88.3053 195.579 92.3025L203.734 96.4048V115.128C203.734 134.272 201.852 142.477 196.206 146.895C194.952 147.842 194.481 149.209 195.265 149.945C195.892 150.682 195.736 150.997 194.795 150.576C194.011 150.261 189.776 152.259 185.542 155.205C181.308 158.15 174.094 161.937 169.546 163.725C164.998 165.408 161.548 167.196 162.018 167.406C162.489 167.722 164.684 167.196 166.723 166.249C168.919 165.303 171.271 164.566 171.898 164.566C173.31 164.566 158.725 170.878 157.314 170.878C156.686 170.878 157.314 170.036 158.412 168.984C160.45 167.406 160.293 167.301 157.941 168.669C156.373 169.405 155.432 170.352 155.746 170.772C156.216 171.193 154.177 172.14 151.511 172.876C148.688 173.613 144.454 174.98 141.945 175.716C135.515 177.715 132.536 177.61 120.774 174.454C95.2114 167.617 73.8834 156.257 66.8263 145.633C65.7285 144.16 64.6308 133.746 64.1603 120.913L63.2193 98.8241L62.9057 120.072C62.592 139.111 62.9057 141.741 65.7285 146.053C72.3151 156.362 92.7023 167.512 119.362 175.19C132.379 179.082 133.32 179.187 138.965 177.82C155.902 173.718 176.133 166.144 174.721 164.461C174.094 163.935 174.878 163.83 176.133 164.146C179.74 165.092 196.677 153.206 201.381 146.474C205.145 141.11 205.302 140.058 205.302 118.599V96.2996L200.754 93.8803L196.206 91.461L195.579 74.6309C195.108 58.958 194.795 57.3802 190.874 51.8052C185.542 44.2317 175.505 37.3945 163.744 33.6078C155.589 30.8729 152.766 30.5573 136.456 30.2418C124.067 30.0314 116.069 30.4521 111.678 31.3988Z" fill="#DDDDDD"/>
<path d="M111.678 31.3988L108.047 14.791L108.071 14.7858L108.095 14.7806L111.678 31.3988ZM72.0015 61.3773L55.5032 57.2777L55.5692 57.0122L55.6437 56.7489L72.0015 61.3773ZM66.5126 94.0906L57.5252 79.6606L57.5669 79.6347L57.6087 79.6089L66.5126 94.0906ZM78.1176 88.3053L83.6261 104.388L66.8162 110.146L61.8071 93.0978L78.1176 88.3053ZM73.8834 73.8946L57.5729 78.6871L56.7997 76.0556L56.8933 73.3145L73.8834 73.8946ZM77.804 52.8571L91.9143 62.3386L91.798 62.5117L91.6774 62.6819L77.804 52.8571ZM105.405 34.5545L110.446 50.7897L110.392 50.8066L110.338 50.8231L105.405 34.5545ZM153.236 34.4493L158.745 18.3664L158.839 18.3988L158.933 18.4323L153.236 34.4493ZM178.642 51.5948L164.887 61.5853L164.833 61.511L164.78 61.4361L178.642 51.5948ZM182.876 66.2159L199.861 65.5026L199.867 65.6481L199.871 65.7936L182.876 66.2159ZM181.935 73.0531L196.941 65.0633L197.244 65.634L197.504 66.2261L181.935 73.0531ZM180.367 71.4753L163.869 67.3758L163.963 66.9943L164.076 66.6176L180.367 71.4753ZM174.878 74.2102L169.761 57.9986L170.008 57.9206L170.258 57.8501L174.878 74.2102ZM169.546 75.8932L174.663 92.1048L156.571 97.8153L152.872 79.2077L169.546 75.8932ZM168.605 71.1597L151.931 74.4743L151.9 74.3142L151.871 74.1536L168.605 71.1597ZM152.766 47.9133L158.171 31.7955L152.766 47.9133ZM112.148 48.9652L124.586 37.3759L124.704 37.5023L124.819 37.631L112.148 48.9652ZM110.423 49.2807L106.714 65.8711L106.495 65.8221L106.277 65.7672L110.423 49.2807ZM91.134 63.1655L75.2902 57.0033L75.4954 56.4757L75.7352 55.963L91.134 63.1655ZM91.7613 84.5186L100.056 99.3578L99.3934 99.728L98.7008 100.038L91.7613 84.5186ZM105.875 81.5733L108.75 98.3285L108.719 98.3339L108.687 98.3392L105.875 81.5733ZM115.128 79.4696V96.4696H114.61L114.093 96.4381L115.128 79.4696ZM101.484 81.3629L101.184 98.3603L83.3918 98.0462L84.5185 80.2866L101.484 81.3629ZM102.112 71.4753L119.096 72.2128L119.088 72.3823L119.078 72.5517L102.112 71.4753ZM114.344 53.2778L107.268 37.8207L107.285 37.8129L107.302 37.8051L114.344 53.2778ZM162.646 60.4306L176.14 50.0916L176.209 50.1805L176.276 50.2703L162.646 60.4306ZM165.782 73.8946L182.767 74.6181L182.763 74.7083L182.758 74.7985L165.782 73.8946ZM195.579 92.3025L203.179 77.0958L203.199 77.1058L203.219 77.1158L195.579 92.3025ZM203.734 96.4048L211.373 81.2181L220.734 85.9268V96.4048H203.734ZM196.206 146.895L206.683 160.283L206.565 160.375L206.446 160.465L196.206 146.895ZM195.265 149.945L206.902 137.553L207.592 138.2L208.206 138.921L195.265 149.945ZM194.795 150.576L201.142 134.806L201.44 134.926L201.734 135.057L194.795 150.576ZM169.546 163.725L175.767 179.546L175.607 179.609L175.446 179.668L169.546 163.725ZM162.018 167.406L168.958 151.887L170.283 152.48L171.488 153.288L162.018 167.406ZM166.723 166.249L159.563 150.831L159.776 150.732L159.992 150.639L166.723 166.249ZM158.412 168.984L146.65 156.71L147.298 156.089L148.007 155.54L158.412 168.984ZM157.941 168.669L166.485 183.366L165.841 183.74L165.166 184.057L157.941 168.669ZM155.746 170.772L144.413 183.444L143.138 182.304L142.116 180.933L155.746 170.772ZM151.511 172.876L156.037 189.263L155.92 189.295L155.802 189.326L151.511 172.876ZM141.945 175.716L136.899 159.482L137.028 159.442L137.158 159.404L141.945 175.716ZM120.774 174.454L125.166 158.031L125.179 158.035L120.774 174.454ZM66.8263 145.633L80.456 135.472L80.7317 135.842L80.9868 136.226L66.8263 145.633ZM64.1603 120.913L81.1449 120.19L81.147 120.24L81.1489 120.291L64.1603 120.913ZM63.2193 98.8241L46.2212 98.5732L80.2039 98.1006L63.2193 98.8241ZM62.9057 120.072L79.9038 120.323L79.9036 120.337L79.9034 120.352L62.9057 120.072ZM65.7285 146.053L79.9525 136.743L80.0036 136.821L80.0539 136.9L65.7285 146.053ZM119.362 175.19L124.067 158.854L124.15 158.878L124.232 158.903L119.362 175.19ZM138.965 177.82L142.967 194.342L138.965 177.82ZM174.721 164.461L185.643 151.434L186.788 152.393L187.747 153.537L174.721 164.461ZM176.133 164.146L180.279 147.659L180.364 147.68L180.448 147.703L176.133 164.146ZM201.381 146.474L187.447 136.736L187.456 136.723L187.465 136.71L201.381 146.474ZM205.302 96.2996L213.286 81.2911L222.302 86.0873V96.2996H205.302ZM200.754 93.8803L208.738 78.8717L208.738 78.8717L200.754 93.8803ZM196.206 91.461L188.222 106.469L179.582 101.873L179.218 92.0942L196.206 91.461ZM195.579 74.6309L178.591 75.2641L178.588 75.2026L178.586 75.141L195.579 74.6309ZM190.874 51.8052L204.775 42.0188L204.78 42.026L190.874 51.8052ZM163.744 33.6078L158.534 49.7898L158.436 49.7582L158.338 49.7255L163.744 33.6078ZM136.456 30.2418L136.745 13.2442L136.765 13.2445L136.785 13.2449L136.456 30.2418ZM115.309 48.0066C97.2422 51.9561 90.0257 60.1162 88.3593 66.0056L55.6437 56.7489C62.1321 33.8169 83.7712 20.098 108.047 14.791L115.309 48.0066ZM88.4998 65.4768C88.5078 65.4446 88.4076 65.8805 88.2583 66.9371C88.1216 67.9039 87.9807 69.1248 87.8541 70.5232C87.5986 73.3442 87.4332 76.5346 87.4332 79.3644H53.4332C53.4332 71.9566 54.2348 62.3823 55.5032 57.2777L88.4998 65.4768ZM87.4332 79.3644C87.4332 82.2127 87.4261 84.813 87.3349 86.9803C87.2492 89.0177 87.0608 91.7729 86.3224 94.5728C85.4454 97.8986 83.8283 101.205 81.0815 104.118C78.8244 106.512 76.3265 108.013 75.4166 108.572L57.6087 79.6089C57.986 79.377 57.9543 79.3849 57.7796 79.5117C57.5706 79.6633 57.0085 80.0884 56.3447 80.7924C55.6361 81.5438 54.964 82.4501 54.4112 83.4853C53.8773 84.4851 53.5932 85.3464 53.4463 85.9035C53.3088 86.4249 53.2841 86.7098 53.2969 86.5987C53.3092 86.4918 53.3385 86.1802 53.365 85.551C53.4208 84.2242 53.4332 82.354 53.4332 79.3644H87.4332ZM75.5001 108.521C75.1156 108.76 74.9412 108.921 75.0616 108.814C75.0824 108.795 75.5341 108.4 76.1325 107.657C76.4206 107.3 77.0368 106.502 77.6589 105.339C77.9799 104.74 78.4147 103.835 78.7892 102.676C79.1519 101.553 79.592 99.7803 79.592 97.5618H45.592C45.592 93.3473 47.1425 90.3042 47.682 89.2961C48.407 87.9415 49.1751 86.9233 49.6592 86.3226C50.6497 85.0935 51.6699 84.1198 52.3965 83.4701C53.9283 82.1001 55.7142 80.7886 57.5252 79.6606L75.5001 108.521ZM79.592 97.5618C79.592 93.5549 77.9622 87.3813 71.9324 83.4549C67.1039 80.3108 62.4005 80.6685 60.9222 80.8363C57.7202 81.1997 55.5743 82.4374 55.5294 82.4613C54.5983 82.9566 54.3335 83.2544 54.691 82.9493L76.766 108.808C75.3984 109.976 73.5654 111.378 71.4973 112.478C70.884 112.805 68.2774 114.22 64.7568 114.619C63.1193 114.805 58.2921 115.146 53.3797 111.947C47.266 107.966 45.592 101.7 45.592 97.5618H79.592ZM54.691 82.9493C57.0418 80.9425 59.9871 79.2603 62.0641 78.1636C64.4523 76.9025 67.2251 75.6213 69.9444 74.5999L81.8997 106.429C80.6985 106.88 79.237 107.545 77.9398 108.23C77.3068 108.564 76.8248 108.844 76.5152 109.038C76.1128 109.289 76.2925 109.213 76.766 108.808L54.691 82.9493ZM69.6828 74.7006C71.4471 74.0045 72.6591 73.4722 73.3509 73.1418C73.7117 72.9696 73.7694 72.929 73.624 73.0123C73.5524 73.0534 73.2938 73.2028 72.9302 73.4511C72.689 73.6158 71.7697 74.2453 70.7258 75.2956C70.2113 75.8132 69.2079 76.8859 68.2562 78.4783C67.4095 79.8951 65.653 83.2939 65.8906 87.9942C66.1752 93.6262 69.1318 98.0534 72.6341 100.684C75.5304 102.859 78.3501 103.523 79.5416 103.753C81.988 104.227 83.9059 104.007 84.2116 103.976C84.8607 103.909 85.3123 103.818 85.4449 103.791C85.7894 103.72 85.3508 103.797 83.6261 104.388L72.6092 72.2225C74.5698 71.551 76.6992 70.8792 78.5728 70.4926C79.0876 70.3863 79.8566 70.2434 80.7592 70.1513C81.3185 70.0942 83.4263 69.8743 86.0001 70.3723C87.2554 70.6152 90.1232 71.2975 93.0521 73.4972C96.587 76.152 99.5608 80.6098 99.8472 86.2781C100.087 91.0148 98.3167 94.4558 97.4413 95.9205C96.461 97.5608 95.4138 98.6871 94.8405 99.2639C92.9425 101.174 90.8803 102.311 90.5259 102.514C89.6749 103.001 88.7965 103.444 88.0007 103.824C86.3794 104.598 84.3961 105.446 82.1614 106.328L69.6828 74.7006ZM56.8933 73.3145C57.1187 66.7121 57.3646 61.2017 58.1783 56.7376C59.2056 51.1025 61.12 47.0009 63.9305 43.0323L91.6774 62.6819C91.3886 63.0898 91.48 63.0173 91.6153 62.703C91.7516 62.3864 91.7215 62.3176 91.6271 62.8351C91.3431 64.393 91.1185 67.2976 90.8735 74.4747L56.8933 73.3145ZM63.6936 43.3756C71.5396 31.6993 86.5477 22.5079 100.472 18.2858L110.338 50.8231C101.366 53.5434 94.1051 59.0782 91.9143 62.3386L63.6936 43.3756ZM100.364 18.3192C105.025 16.8716 109.06 15.7952 114.027 15.2118C118.625 14.6716 123.615 14.6092 130.026 14.6092V48.6092C123.421 48.6092 120.335 48.7046 117.994 48.9796C116.021 49.2113 114.253 49.6076 110.446 50.7897L100.364 18.3192ZM130.026 14.6092C136.466 14.6092 141.444 14.6684 145.865 15.2076C150.799 15.8092 154.585 16.9418 158.745 18.3664L147.728 50.5321C144.517 49.4322 143.285 49.1447 141.749 48.9575C139.702 48.7078 136.76 48.6092 130.026 48.6092V14.6092ZM158.933 18.4323C171.191 22.7921 185.066 31.2774 192.504 41.7536L164.78 61.4361C162.808 58.6586 155.983 53.4696 147.539 50.4662L158.933 18.4323ZM192.396 41.6044C194.667 44.7303 196.727 48.269 198.073 52.8653C199.306 57.0751 199.687 61.3449 199.861 65.5026L165.891 66.9293C165.752 63.6187 165.505 62.629 165.444 62.421C165.438 62.4006 165.452 62.4382 165.451 62.4362C165.429 62.3932 165.298 62.1515 164.887 61.5853L192.396 41.6044ZM199.871 65.7936C199.946 68.8122 199.971 72.2837 199.601 74.9808C199.504 75.6915 199.281 77.1386 198.721 78.7915C198.442 79.6161 197.887 81.0773 196.85 82.697C195.895 84.1875 193.697 87.1293 189.63 89.0292C184.859 91.2575 179.81 90.9973 175.781 89.3164C172.386 87.9 170.315 85.7598 169.395 84.7051C167.565 82.6066 166.643 80.5109 166.366 79.8801L197.504 66.2261C197.424 66.0424 196.683 64.2656 195.019 62.3581C194.183 61.3989 192.191 59.3223 188.872 57.9376C184.919 56.2884 179.942 56.028 175.24 58.2243C171.242 60.0921 169.108 62.97 168.215 64.3648C167.24 65.8888 166.742 67.2226 166.517 67.8879C166.065 69.2224 165.935 70.2241 165.916 70.3628C165.86 70.7721 165.963 69.9309 165.881 66.6382L199.871 65.7936ZM166.93 81.043C166.933 81.0492 166.955 81.0911 166.998 81.1639C167.04 81.2346 167.115 81.3579 167.224 81.5223C167.365 81.7341 167.905 82.5395 168.858 83.4989C169.338 83.981 170.246 84.8331 171.572 85.6804C172.766 86.4435 175.374 87.9006 179.073 88.227C183.425 88.6111 188.113 87.2906 191.794 83.9907C194.953 81.1588 196.179 77.9385 196.658 76.333L164.076 66.6176C164.594 64.8807 165.874 61.565 169.1 58.6727C172.849 55.3124 177.618 53.9664 182.062 54.3587C185.855 54.6934 188.568 56.1924 189.879 57.0298C191.321 57.9515 192.357 58.9105 192.973 59.5306C195.082 61.6522 196.384 64.0177 196.941 65.0633L166.93 81.043ZM196.865 75.5749C195.896 79.4746 193.829 81.9963 192.959 82.9835C191.891 84.1942 190.847 85.0531 190.163 85.5743C188.776 86.6305 187.407 87.3973 186.402 87.9095C184.299 88.9813 181.907 89.89 179.498 90.5703L170.258 57.8501C170.828 57.6889 171.103 57.5457 170.96 57.6182C170.936 57.6308 170.37 57.9111 169.561 58.5268C169.166 58.8278 168.355 59.4779 167.458 60.4955C166.758 61.2896 164.798 63.6338 163.869 67.3758L196.865 75.5749ZM179.995 90.4218L174.663 92.1048L164.429 59.6816L169.761 57.9986L179.995 90.4218ZM152.872 79.2077L151.931 74.4743L185.279 67.8452L186.22 72.5787L152.872 79.2077ZM151.871 74.1536C151.341 71.1938 150.664 66.2467 150.664 62.6395H184.664C184.664 62.5952 184.664 62.7736 184.698 63.2278C184.729 63.6483 184.779 64.1706 184.848 64.7655C184.986 65.975 185.171 67.2256 185.339 68.1659L151.871 74.1536ZM150.664 62.6395C150.664 64.817 151.321 66.1577 151.497 66.4858C151.697 66.8587 151.728 66.7812 151.333 66.3915C150.966 66.0295 150.4 65.567 149.654 65.1103C148.915 64.6573 148.125 64.2875 147.36 64.031L158.171 31.7955C164.67 33.975 170.638 37.6755 175.213 42.189C179.295 46.2165 184.664 53.3317 184.664 62.6395H150.664ZM147.36 64.031C144.957 63.225 142.591 62.7043 133.633 62.7043V28.7043C143.808 28.7043 150.538 29.2355 158.171 31.7955L147.36 64.031ZM133.633 62.7043C127.761 62.7043 122.904 63.0724 120.047 63.5087C118.321 63.7724 118.465 63.8939 119.496 63.4701C119.854 63.3232 120.6 62.9958 121.519 62.4164C122.331 61.9037 124.062 60.7094 125.675 58.5674C127.437 56.2272 129.338 52.3092 128.936 47.2913C128.547 42.4506 126.211 39.12 124.586 37.3759L99.7111 60.5544C97.8898 58.5999 95.4497 55.0598 95.0445 50.0111C94.6251 44.7852 96.5973 40.6607 98.5132 38.1162C101.61 34.0037 105.694 32.3829 106.575 32.0212C109.478 30.8282 112.68 30.2396 114.914 29.8985C119.976 29.1252 126.646 28.7043 133.633 28.7043V62.7043ZM124.819 37.631C125.617 38.5236 127.044 40.2859 128.073 42.8833C129.17 45.6524 130.083 50.1807 128.205 55.218C126.356 60.1801 122.799 62.9404 120.378 64.2728C118.053 65.5527 115.947 66.0126 114.803 66.2044C110.986 66.8444 107.637 66.0776 106.714 65.8711L114.133 32.6903C114.004 32.6615 113.62 32.5799 113.036 32.5218C112.662 32.4847 111.169 32.3391 109.18 32.6726C108.193 32.8381 106.215 33.2586 103.985 34.4858C101.659 35.7657 98.1665 38.4602 96.3464 43.3434C94.4983 48.3018 95.4066 52.7381 96.4616 55.4021C97.4485 57.8942 98.7973 59.5382 99.4781 60.2993L124.819 37.631ZM106.277 65.7672C108.17 66.2434 109.726 66.247 110.659 66.1895C111.623 66.1302 112.332 65.9791 112.707 65.8861C113.415 65.7105 113.676 65.5551 113.388 65.6901C112.841 65.9466 111.714 66.588 110.267 67.6339C108.865 68.6474 107.589 69.7322 106.68 70.6383C106.232 71.0854 105.992 71.3706 105.913 71.4721C105.783 71.6369 106.118 71.2541 106.533 70.368L75.7352 55.963C77.6372 51.8965 80.6137 48.6156 82.6743 46.5611C85.0294 44.213 87.7132 41.9844 90.3494 40.0788C92.9405 38.2058 95.9307 36.3227 98.961 34.9027C100.461 34.1996 102.376 33.418 104.526 32.8849C106.339 32.4357 110.146 31.6815 114.57 32.7942L106.277 65.7672ZM106.978 69.3276C107.137 68.9179 107.113 68.8847 106.988 69.4143C106.882 69.8599 106.757 70.4894 106.637 71.2559C106.388 72.8497 106.252 74.4797 106.252 75.6828H72.2521C72.2521 69.8172 73.3496 61.9928 75.2902 57.0033L106.978 69.3276ZM106.252 75.6828C106.252 82.0885 103.572 87.1165 101.542 90.1206C99.3936 93.3011 96.8276 95.8985 94.7042 97.8035C90.5706 101.512 86.0463 104.42 83.7169 105.622L68.1273 75.4066C67.8322 75.5589 67.8157 75.5839 68.1332 75.3873C68.387 75.2302 68.7547 74.9928 69.196 74.6877C70.1049 74.0592 71.1149 73.2891 71.9991 72.4959C72.432 72.1074 72.775 71.7668 73.0302 71.488C73.2927 71.201 73.3854 71.0632 73.3696 71.0867C73.3631 71.0962 73.1247 71.4435 72.8676 72.1214C72.6059 72.8114 72.2521 74.0402 72.2521 75.6828H106.252ZM83.467 69.6793C85.2176 68.7008 86.8618 68.196 87.2223 68.0818C87.9308 67.8574 88.6274 67.6699 89.2081 67.5224C90.3899 67.2223 91.7578 66.9203 93.1476 66.6335C95.9644 66.0522 99.4771 65.4089 103.064 64.8074L108.687 98.3392C105.374 98.8948 102.3 99.4612 100.02 99.9318C98.8611 100.171 98.0531 100.355 97.5785 100.476C97.3309 100.539 97.3292 100.545 97.4875 100.495C97.5688 100.469 97.8034 100.394 98.1322 100.267C98.3815 100.17 99.1275 99.8767 100.056 99.3578L83.467 69.6793ZM103.001 64.8182C106.276 64.2561 108.677 63.7892 109.927 63.5064C111.076 63.2466 110.196 63.3772 108.892 63.9135C108.842 63.9342 106.687 64.7432 104.502 66.595C103.689 67.2841 99.9336 70.4825 98.8144 76.3515C97.2683 84.4584 101.712 90.32 105.057 92.9252C107.734 95.0097 110.332 95.7198 111.057 95.9142C112.126 96.2008 112.99 96.3169 113.42 96.3669C114.3 96.4691 114.958 96.4696 115.128 96.4696V62.4696C115.514 62.4696 116.341 62.4775 117.345 62.5941C117.837 62.6513 118.752 62.7764 119.861 63.0737C120.626 63.2787 123.253 64.0013 125.947 66.0998C129.311 68.7191 133.762 74.5964 132.212 82.7207C131.09 88.6071 127.321 91.8244 126.483 92.5341C124.249 94.427 122.005 95.2835 121.825 95.3577C120.002 96.1076 117.965 96.5472 117.428 96.6687C115.306 97.1485 112.218 97.7335 108.75 98.3285L103.001 64.8182ZM114.093 96.4381C114.063 96.4362 113.93 96.4282 113.769 96.4155C113.739 96.4132 113.453 96.3916 113.097 96.3496C112.84 96.3173 111.972 96.1784 111.364 96.0533C108.181 94.9994 98.2567 77.0872 109.497 63.4127C111.369 62.8786 113.775 62.5174 114.261 62.4867C114.482 62.4773 114.827 62.4685 114.953 62.467C115.167 62.4652 115.335 62.468 115.382 62.4688C115.509 62.4709 115.614 62.474 115.649 62.4751C115.803 62.4798 115.995 62.4873 116.144 62.4934C116.493 62.5074 117.035 62.5305 117.728 62.5608C119.122 62.6217 121.195 62.7148 123.714 62.8312C128.752 63.0638 135.605 63.3907 142.425 63.7411C149.223 64.0903 156.073 64.4671 161.07 64.7999C163.518 64.9629 165.74 65.1295 167.326 65.2922C167.889 65.35 169.195 65.4838 170.453 65.7504C170.797 65.8233 171.591 65.9989 172.55 66.3248C173.022 66.4856 173.892 66.8019 174.917 67.3309C175.662 67.7154 177.991 68.9519 180.129 71.4813C182.709 74.5347 185.775 80.7147 183.196 88.087C181.213 93.7542 177.014 96.3845 175.894 97.0581C173.235 98.657 170.736 99.1137 170.56 99.151L163.514 65.889C163.431 65.9066 160.996 66.3427 158.373 67.9201C157.271 68.5829 153.083 71.2021 151.104 76.8582C148.528 84.2192 151.591 90.3878 154.162 93.4296C156.29 95.9474 158.602 97.172 159.324 97.5444C160.325 98.0614 161.165 98.3654 161.601 98.5137C162.486 98.8146 163.181 98.9644 163.399 99.0108C164.155 99.1711 164.552 99.1861 163.856 99.1146C162.923 99.0189 161.225 98.8855 158.811 98.7248C154.085 98.41 147.448 98.044 140.681 97.6963C133.936 97.3498 127.145 97.0258 122.146 96.795C119.647 96.6796 117.603 96.5878 116.243 96.5283C115.559 96.4984 115.064 96.4774 114.775 96.4658C114.605 96.4589 114.577 96.4582 114.619 96.4595C114.625 96.4597 114.708 96.4623 114.821 96.4641C114.86 96.4648 115.023 96.4675 115.233 96.4658C115.357 96.4643 115.701 96.4555 115.92 96.4462C116.405 96.4155 118.81 96.0544 120.682 95.5204C131.922 81.846 121.998 63.9339 118.816 62.8801C118.208 62.7551 117.341 62.6164 117.086 62.5843C116.732 62.5426 116.452 62.5215 116.428 62.5196C116.279 62.508 116.167 62.5013 116.163 62.5011L114.093 96.4381ZM166.737 99.5174L101.184 98.3603L101.784 64.3656L167.337 65.5227L166.737 99.5174ZM84.5185 80.2866L85.1458 70.399L119.078 72.5517L118.45 82.4393L84.5185 80.2866ZM85.1277 70.7378C85.3686 65.1909 85.945 57.4503 90.5821 50.5386C95.2281 43.6136 102.182 40.1487 107.268 37.8207L121.42 68.735C119.25 69.7286 118.296 70.2873 117.901 70.5558C117.652 70.7257 118.208 70.3876 118.816 69.4811C119.423 68.5764 119.523 67.9381 119.458 68.2446C119.356 68.7213 119.199 69.8226 119.096 72.2128L85.1277 70.7378ZM107.302 37.8051C115.489 34.0787 121.872 33.9637 133.947 33.9637V67.9637C127.59 67.9637 124.78 68.0617 123.126 68.2556C122.484 68.331 122.266 68.3964 122.234 68.4058C122.191 68.4182 121.995 68.4734 121.386 68.7506L107.302 37.8051ZM133.947 33.9637C142.661 33.9637 150.81 34.3627 157.928 36.7171C166.255 39.4715 171.74 44.3476 176.14 50.0916L149.151 70.7696C148.29 69.6455 147.866 69.3011 147.772 69.2294C147.761 69.2204 147.693 69.1432 147.251 68.9971C145.783 68.5114 142.483 67.9637 133.947 67.9637V33.9637ZM176.276 50.2703C178.419 53.1454 180.805 56.8613 182.01 62.0632C183.039 66.5018 182.922 70.9669 182.767 74.6181L148.798 73.1711C148.87 71.4791 148.877 70.487 148.854 69.8574C148.833 69.2684 148.795 69.3355 148.888 69.7375C148.937 69.9481 149.009 70.197 149.108 70.4622C149.207 70.7258 149.306 70.9355 149.379 71.0762C149.504 71.3137 149.496 71.2348 149.016 70.5909L176.276 50.2703ZM182.758 74.7985C182.617 77.459 182.74 78.2098 182.688 77.864C182.686 77.8564 182.462 76.027 181.194 73.7445C180.502 72.498 179.145 70.4748 176.728 68.6965C174.084 66.7517 170.715 65.52 167.037 65.52V99.52C158.136 99.52 153.247 93.4491 151.473 90.2568C149.818 87.2774 149.29 84.3961 149.073 82.9685C148.589 79.7827 148.634 76.2208 148.806 72.9907L182.758 74.7985ZM167.037 65.52C170.591 65.52 174.477 66.5544 176.415 67.0805C179.108 67.812 182.181 68.7827 185.243 69.8344C191.231 71.8914 198.22 74.6176 203.179 77.0958L187.979 107.509C184.94 105.99 179.539 103.825 174.197 101.99C171.594 101.096 169.266 100.371 167.505 99.8923C166.617 99.6513 166.025 99.5145 165.7 99.4499C165.131 99.3368 165.786 99.52 167.037 99.52V65.52ZM203.219 77.1158L211.373 81.2181L196.094 111.591L187.939 107.489L203.219 77.1158ZM220.734 96.4048V115.128H186.734V96.4048H220.734ZM220.734 115.128C220.734 124.918 220.287 133.41 218.635 140.429C216.853 147.998 213.39 155.034 206.683 160.283L185.73 133.507C184.668 134.338 184.969 135.063 185.539 132.638C186.239 129.665 186.734 124.482 186.734 115.128H220.734ZM206.446 160.465C207.917 159.355 210.031 157.221 211.165 153.672C212.407 149.785 212.53 142.837 206.902 137.553L183.628 162.338C177.216 156.317 177.183 148.317 178.777 143.325C180.264 138.673 183.24 135.382 185.966 133.325L206.446 160.465ZM208.206 138.921C208.814 139.634 210.021 141.132 211.005 143.25C211.496 144.306 212.281 146.252 212.549 148.818C212.823 151.455 212.627 155.802 209.789 160.085C203.847 169.053 194.105 167.741 193.133 167.613C190.618 167.282 188.696 166.471 187.855 166.096L201.734 135.057C201.364 134.892 199.814 134.2 197.574 133.904C196.877 133.813 187.311 132.454 181.447 141.305C178.648 145.528 178.467 149.798 178.732 152.341C178.989 154.813 179.74 156.648 180.172 157.578C181.038 159.442 182.03 160.625 182.325 160.97L208.206 138.921ZM188.448 166.347C190.922 167.343 193.049 167.509 194.161 167.538C195.375 167.57 196.334 167.457 196.895 167.372C197.993 167.205 198.741 166.962 198.936 166.898C199.389 166.748 199.427 166.695 198.959 166.925C198.115 167.34 196.733 168.128 195.25 169.161L175.835 141.249C178.585 139.336 181.438 137.652 183.965 136.41C185.183 135.812 186.692 135.134 188.292 134.607C189.06 134.354 190.3 133.983 191.796 133.756C192.577 133.638 196.592 132.975 201.142 134.806L188.448 166.347ZM195.25 169.161C189.862 172.908 181.467 177.305 175.767 179.546L163.325 147.904C166.721 146.569 172.753 143.392 175.835 141.249L195.25 169.161ZM175.446 179.668C173.63 180.34 172.207 180.973 171.482 181.334C170.993 181.577 171.285 181.466 171.923 181.032C172.125 180.894 172.503 180.629 172.967 180.246C173.341 179.938 174.274 179.146 175.264 177.915C175.781 177.273 178.847 173.553 178.972 167.712C179.047 164.197 178.02 160.461 175.635 157.248C173.426 154.272 170.76 152.693 168.958 151.887L155.079 182.926C153.247 182.106 150.56 180.511 148.337 177.516C145.937 174.284 144.904 170.526 144.979 166.985C145.105 161.095 148.201 157.313 148.776 156.599C150.536 154.412 152.49 153.131 152.79 152.926C154.085 152.045 155.436 151.342 156.319 150.902C158.338 149.896 160.915 148.792 163.646 147.782L175.446 179.668ZM171.488 153.288C168.397 151.215 165.483 150.759 164.432 150.624C163.106 150.454 162.074 150.495 161.564 150.528C160.527 150.595 159.864 150.759 159.754 150.785C159.552 150.835 159.475 150.865 159.506 150.854C159.511 150.852 159.523 150.847 159.539 150.841C159.546 150.838 159.552 150.836 159.557 150.834C159.561 150.832 159.564 150.83 159.563 150.831L173.883 181.668C171.947 182.567 169.842 183.322 167.811 183.817C166.839 184.054 165.411 184.349 163.767 184.456C162.953 184.509 161.657 184.546 160.112 184.348C158.843 184.186 155.758 183.677 152.549 181.525L171.488 153.288ZM159.992 150.639C161.596 149.947 163.243 149.336 164.697 148.868C165.418 148.637 166.246 148.39 167.099 148.182C167.442 148.098 169.486 147.566 171.898 147.566V181.566C172.642 181.566 173.232 181.515 173.581 181.477C173.955 181.437 174.253 181.391 174.449 181.357C174.831 181.292 175.088 181.23 175.169 181.21C175.336 181.17 175.321 181.167 175.101 181.238C174.673 181.375 174.046 181.605 173.454 181.86L159.992 150.639ZM171.898 147.566C172.596 147.566 173.891 147.605 175.468 147.938C176.813 148.223 180.025 149.052 183.13 151.747C186.972 155.083 189.205 160.05 188.979 165.333C188.796 169.607 187.069 172.604 186.294 173.812C184.729 176.254 182.894 177.694 182.561 177.962C181.892 178.501 181.305 178.893 180.976 179.107C179.821 179.854 178.592 180.472 177.978 180.777C176.401 181.561 174.356 182.484 172.416 183.324C170.443 184.177 168.301 185.064 166.471 185.765C165.577 186.108 164.589 186.472 163.657 186.774C163.204 186.922 162.572 187.117 161.868 187.294C161.612 187.359 159.688 187.878 157.314 187.878V153.878C155.97 153.878 154.95 154.045 154.583 154.109C154.108 154.191 153.754 154.276 153.584 154.319C153.247 154.404 153.072 154.464 153.15 154.438C153.281 154.396 153.652 154.267 154.302 154.018C155.56 153.536 157.24 152.844 158.913 152.12C160.619 151.382 162.045 150.728 162.849 150.328C163.426 150.042 163.116 150.166 162.494 150.568C162.297 150.696 161.82 151.011 161.234 151.483C160.985 151.684 159.207 153.067 157.671 155.462C156.911 156.648 155.192 159.624 155.01 163.88C154.785 169.146 157.012 174.098 160.84 177.422C163.931 180.105 167.121 180.925 168.438 181.204C169.987 181.531 171.245 181.566 171.898 181.566V147.566ZM157.314 187.878C155.714 187.878 152.057 187.674 148.227 185.318C143.55 182.44 140.826 177.726 140.205 172.897C139.699 168.956 140.688 165.896 141.178 164.587C141.749 163.065 142.421 161.916 142.837 161.256C144.248 159.019 146.008 157.325 146.65 156.71L170.173 181.259C169.718 181.695 170.614 180.949 171.594 179.395C171.903 178.906 172.494 177.911 173.014 176.525C173.454 175.352 174.422 172.408 173.928 168.563C173.319 163.829 170.64 159.188 166.044 156.36C162.296 154.055 158.757 153.878 157.314 153.878V187.878ZM148.007 155.54C148.454 155.194 148.432 155.195 148.196 155.405C148.196 155.406 147.488 156.019 146.687 156.986C146.458 157.262 145.087 158.875 144.079 161.356C143.581 162.579 142.529 165.534 142.915 169.418C143.387 174.173 145.91 178.86 150.353 181.84C153.998 184.285 157.533 184.632 159.042 184.699C160.769 184.777 162.13 184.569 162.827 184.442C164.232 184.185 165.269 183.804 165.597 183.682C166.389 183.387 166.922 183.112 166.933 183.106C167.09 183.027 166.996 183.069 166.485 183.366L149.398 153.971C150.062 153.585 150.87 153.127 151.654 152.733C151.979 152.569 152.758 152.182 153.725 151.822C154.142 151.666 155.25 151.264 156.709 150.997C157.432 150.865 158.816 150.655 160.561 150.733C162.089 150.802 165.638 151.153 169.293 153.604C173.746 156.591 176.274 161.287 176.748 166.055C177.135 169.951 176.079 172.921 175.575 174.162C174.551 176.679 173.149 178.339 172.871 178.674C171.972 179.76 171.098 180.538 170.861 180.749C170.156 181.38 169.389 181.985 168.816 182.428L148.007 155.54ZM165.166 184.057C165.516 183.893 166.637 183.341 167.99 182.026C168.557 181.474 170.169 179.836 171.351 177.09C172.573 174.251 174.339 167.271 169.375 160.612L142.116 180.933C136.995 174.064 138.761 166.808 140.12 163.65C141.44 160.584 143.326 158.585 144.285 157.652C146.422 155.574 148.798 154.181 150.716 153.28L165.166 184.057ZM167.078 158.101C168.847 159.683 170.777 162.077 171.903 165.393C173.053 168.781 173.007 172.087 172.355 174.853C171.211 179.705 168.326 182.582 167.41 183.458C165.244 185.531 162.952 186.648 162.239 186.994C160.171 188 157.909 188.746 156.037 189.263L146.986 156.49C147.779 156.27 147.87 156.175 147.37 156.418C147.199 156.501 146.832 156.686 146.352 156.984C145.951 157.233 144.99 157.853 143.905 158.892C143.156 159.609 140.373 162.337 139.261 167.054C138.625 169.752 138.577 172.994 139.707 176.322C140.812 179.577 142.703 181.915 144.413 183.444L167.078 158.101ZM155.802 189.326C153.231 189.996 150.106 191.038 146.732 192.028L137.158 159.404C138.803 158.922 144.145 157.229 147.221 156.427L155.802 189.326ZM146.991 191.95C142.77 193.262 138.238 194.321 132.398 193.991C127.409 193.708 122.156 192.426 116.369 190.873L125.179 158.035C131.154 159.638 133.271 159.986 134.32 160.045C134.518 160.056 134.69 160.169 136.899 159.482L146.991 191.95ZM116.381 190.877C102.549 187.177 89.5826 182.187 78.8552 176.46C68.6369 171.006 58.5417 163.885 52.6657 155.039L80.9868 136.226C82.1679 138.004 86.2653 141.875 94.8659 146.466C102.957 150.785 113.436 154.894 125.166 158.031L116.381 190.877ZM53.1966 155.793C51.1671 153.07 50.3515 150.284 50.1405 149.584C49.7692 148.354 49.5062 147.145 49.3153 146.147C48.9267 144.115 48.6135 141.759 48.3548 139.344C47.83 134.446 47.4167 128.219 47.1717 121.536L81.1489 120.291C81.3744 126.441 81.7451 131.837 82.1613 135.722C82.3731 137.699 82.5695 139.025 82.7102 139.761C82.784 140.146 82.7905 140.093 82.6912 139.763C82.6399 139.593 82.504 139.161 82.2546 138.577C82.049 138.095 81.5024 136.876 80.456 135.472L53.1966 155.793ZM47.1757 121.637L46.2347 99.5476L80.2039 98.1006L81.1449 120.19L47.1757 121.637ZM80.2175 99.075L79.9038 120.323L45.9075 119.821L46.2212 98.5732L80.2175 99.075ZM79.9034 120.352C79.7407 130.229 79.7894 134.449 80.0397 136.732C80.134 137.593 80.1962 137.499 80.0151 137.004C79.8203 136.472 79.6204 136.236 79.9525 136.743L51.5046 155.363C48.7144 151.101 46.943 146.831 46.2422 140.438C45.7083 135.568 45.7571 128.954 45.908 119.792L79.9034 120.352ZM80.0539 136.9C81.0095 138.396 84.6899 142.075 93.1447 146.676C101.088 150.999 111.653 155.279 124.067 158.854L114.657 191.526C100.411 187.423 87.4532 182.288 76.8911 176.54C66.8406 171.07 57.0342 164.02 51.4031 155.207L80.0539 136.9ZM124.232 158.903C127.516 159.885 129.781 160.55 131.508 161.011C133.26 161.478 133.958 161.598 134.171 161.626C134.229 161.634 134.139 161.619 133.951 161.617C133.754 161.614 133.576 161.626 133.458 161.639C133.365 161.649 133.548 161.641 134.963 161.298L142.967 194.342C139.629 195.151 135.471 196.099 129.685 195.329C125.461 194.767 120.447 193.258 114.492 191.478L124.232 158.903ZM134.963 161.298C142.736 159.415 151.377 156.7 157.77 154.31C161.047 153.085 163.247 152.125 164.328 151.568C165.067 151.188 164.437 151.427 163.398 152.293C163.068 152.569 161.057 154.206 159.546 157.215C158.7 158.9 157.658 161.718 157.805 165.328C157.964 169.232 159.466 172.726 161.695 175.385L187.747 153.537C190.065 156.301 191.613 159.912 191.777 163.944C191.929 167.682 190.851 170.638 189.931 172.472C188.27 175.779 185.953 177.755 185.171 178.407C183.23 180.025 181.119 181.165 179.895 181.795C177.051 183.26 173.399 184.765 169.677 186.157C162.075 188.999 152.131 192.123 142.967 194.342L134.963 161.298ZM163.799 177.488C163.074 176.881 161.768 175.699 160.54 173.912C159.432 172.3 157.2 168.465 157.533 163.092C157.923 156.826 161.487 152.461 164.778 150.144C167.592 148.164 170.293 147.527 171.522 147.292C174.105 146.797 176.257 146.992 177.145 147.089C178.321 147.218 179.386 147.435 180.279 147.659L171.986 180.632C172.252 180.699 172.749 180.811 173.444 180.887C173.852 180.931 175.612 181.127 177.921 180.684C179.012 180.475 181.606 179.877 184.345 177.95C187.561 175.686 191.084 171.386 191.468 165.2C191.797 159.905 189.596 156.162 188.561 154.655C187.405 152.974 186.212 151.91 185.643 151.434L163.799 177.488ZM180.448 147.703C177.932 147.042 175.926 147.185 175.042 147.286C174.049 147.398 173.373 147.591 173.133 147.664C172.676 147.802 172.698 147.844 173.323 147.531C174.507 146.938 176.371 145.822 178.59 144.267C180.757 142.749 182.909 141.06 184.675 139.493C185.552 138.715 186.255 138.036 186.777 137.487C187.334 136.902 187.504 136.654 187.447 136.736L215.316 156.212C211.168 162.148 203.674 168.207 198.1 172.112C195.047 174.252 191.706 176.35 188.552 177.93C187.009 178.703 185.08 179.571 182.987 180.205C181.642 180.612 177.093 181.973 171.817 180.589L180.448 147.703ZM187.465 136.71C188.399 135.378 188.293 135.429 188.124 135.797C187.841 136.416 187.84 136.763 187.919 136.199C188.031 135.406 188.153 133.9 188.223 130.863C188.291 127.892 188.302 124.003 188.302 118.599H222.302C222.302 128.695 222.306 135.84 221.587 140.945C221.156 143.997 220.41 146.954 219.039 149.949C217.783 152.694 216.245 154.888 215.298 156.238L187.465 136.71ZM188.302 118.599V96.2996H222.302V118.599H188.302ZM197.318 111.308L192.77 108.889L208.738 78.8717L213.286 81.2911L197.318 111.308ZM192.77 108.889L188.222 106.469L204.19 76.4524L208.738 78.8717L192.77 108.889ZM179.218 92.0942L178.591 75.2641L212.567 73.9977L213.194 90.8278L179.218 92.0942ZM178.586 75.141C178.468 71.2025 178.367 68.4377 178.232 66.3272C178.094 64.1928 177.95 63.252 177.869 62.8556C177.831 62.6698 177.869 62.8768 177.99 63.1192C178.003 63.1438 177.869 62.8649 176.968 61.5844L204.78 42.026C207.243 45.5284 209.85 49.581 211.172 56.0071C212.164 60.8296 212.353 66.8492 212.571 74.1209L178.586 75.141ZM176.974 61.5917C174.304 57.8005 167.787 52.769 158.534 49.7898L168.953 17.4258C183.223 22.02 196.78 30.663 204.775 42.0188L176.974 61.5917ZM158.338 49.7255C154.772 48.5296 153.247 48.155 151.095 47.8918C148.355 47.5569 144.479 47.4002 136.127 47.2386L136.785 13.2449C144.743 13.3989 150.433 13.5577 155.221 14.1432C160.596 14.8004 164.56 15.951 169.149 17.49L158.338 49.7255ZM136.168 47.2393C123.705 47.0277 117.513 47.5315 115.261 48.017L108.095 14.7806C114.625 13.3728 124.429 13.0351 136.745 13.2442L136.168 47.2393ZM61.8071 93.0978L57.5729 78.6871L90.1939 69.1022L94.4281 83.5129L61.8071 93.0978ZM83.6806 105.641C83.4358 105.766 83.7687 105.608 84.2948 105.278C84.3224 105.26 85.5598 104.52 86.8828 103.254C87.1079 103.039 89.8808 100.558 91.2801 96.2444C92.1431 93.584 92.8243 89.091 90.6869 84.2005C88.5667 79.3491 84.8597 76.8276 82.4369 75.6716C78.4563 73.7725 74.8553 74.0185 74.5312 74.0303C73.4468 74.0699 72.6117 74.2079 72.2615 74.2697C71.5044 74.4032 70.9543 74.558 70.8408 74.5897C70.5188 74.6797 70.3743 74.7347 70.5639 74.6695C71.291 74.4193 72.9501 73.788 75.1875 72.905C77.3102 72.0673 79.6476 71.1248 81.5479 70.3498C82.4966 69.9629 83.3213 69.6239 83.9429 69.3662C84.6686 69.0652 84.895 68.9667 84.8218 68.9994L98.7008 100.038C97.5634 100.546 92.0125 102.817 87.6684 104.531C85.5091 105.383 83.1739 106.287 81.6265 106.819C81.2476 106.95 80.642 107.154 79.9869 107.336C79.7069 107.415 79.0223 107.602 78.1653 107.753C77.765 107.824 76.8886 107.967 75.7719 108.008C75.4155 108.021 71.7912 108.264 67.7964 106.358C65.3666 105.199 61.6549 102.673 59.5323 97.8162C57.3926 92.9202 58.0738 88.4208 58.9392 85.753C60.3433 81.4246 63.1307 78.9243 63.3801 78.6857C64.7519 77.3734 66.0778 76.5693 66.2362 76.47C67.0239 75.9762 67.7877 75.5807 68.1636 75.388L83.6806 105.641Z" fill="black" mask="url(#path-4-inside-1_5_231)"/>
<path d="M134.074 112.869C133.522 112.823 133.096 112.854 132.837 112.897C132.784 112.935 132.73 112.973 132.676 113.011C133.072 113.319 133.49 113.687 133.901 114.119L135.125 113.039C134.793 112.959 134.437 112.9 134.074 112.869ZM133.34 130.491C133.865 130.493 134.394 130.494 134.92 130.492L134.103 129.098C133.869 129.537 133.614 130.001 133.34 130.491ZM132.662 112.934C132.658 112.935 132.655 112.936 132.652 112.937C132.652 112.937 132.652 112.937 132.652 112.937C132.655 112.936 132.658 112.935 132.662 112.934Z" fill="#DDDDDD" stroke="black" stroke-width="17"/>
</svg>
