<svg width="850" height="200" viewBox="0 0 850 200" fill="none" xmlns="http://www.w3.org/2000/svg">
<rect width="850" height="200" rx="12" fill="#019A32"/>
<path d="M143.142 115.987V113.494L152.504 103.246C153.603 102.046 154.508 101.002 155.219 100.116C155.93 99.2204 156.456 98.3802 156.798 97.5953C157.149 96.8013 157.324 95.9704 157.324 95.1025C157.324 94.1053 157.084 93.242 156.604 92.5126C156.133 91.7832 155.487 91.22 154.665 90.823C153.843 90.426 152.92 90.2275 151.895 90.2275C150.806 90.2275 149.855 90.4537 149.042 90.9061C148.239 91.3493 147.616 91.9725 147.172 92.7757C146.738 93.579 146.522 94.5208 146.522 95.601H143.253C143.253 93.9391 143.636 92.4803 144.403 91.2246C145.169 89.9689 146.212 88.9902 147.533 88.2885C148.862 87.5868 150.353 87.236 152.006 87.236C153.668 87.236 155.14 87.5868 156.424 88.2885C157.707 88.9902 158.714 89.9366 159.443 91.1277C160.172 92.3187 160.537 93.6436 160.537 95.1025C160.537 96.1458 160.348 97.166 159.969 98.1632C159.6 99.1511 158.954 100.254 158.03 101.473C157.116 102.683 155.847 104.16 154.222 105.905L147.851 112.719V112.941H161.036V115.987H143.142ZM175.841 116.375C173.939 116.375 172.258 116.038 170.8 115.364C169.35 114.681 168.219 113.744 167.406 112.553C166.594 111.352 166.192 109.986 166.202 108.453C166.192 107.253 166.428 106.145 166.908 105.129C167.388 104.105 168.044 103.251 168.875 102.567C169.715 101.875 170.652 101.436 171.686 101.252V101.085C170.329 100.735 169.248 99.9728 168.445 98.8003C167.642 97.6184 167.245 96.275 167.254 94.7701C167.245 93.3297 167.61 92.0417 168.348 90.9061C169.087 89.7704 170.102 88.8748 171.395 88.2193C172.697 87.5637 174.179 87.236 175.841 87.236C177.484 87.236 178.952 87.5637 180.245 88.2193C181.537 88.8748 182.553 89.7704 183.292 90.9061C184.04 92.0417 184.418 93.3297 184.427 94.7701C184.418 96.275 184.007 97.6184 183.195 98.8003C182.392 99.9728 181.325 100.735 179.996 101.085V101.252C181.02 101.436 181.944 101.875 182.765 102.567C183.587 103.251 184.243 104.105 184.732 105.129C185.221 106.145 185.471 107.253 185.48 108.453C185.471 109.986 185.055 111.352 184.234 112.553C183.421 113.744 182.29 114.681 180.84 115.364C179.4 116.038 177.734 116.375 175.841 116.375ZM175.841 113.328C177.124 113.328 178.232 113.121 179.165 112.705C180.097 112.29 180.817 111.703 181.325 110.946C181.833 110.189 182.091 109.303 182.101 108.287C182.091 107.216 181.814 106.27 181.27 105.448C180.725 104.626 179.982 103.98 179.04 103.509C178.107 103.038 177.041 102.803 175.841 102.803C174.631 102.803 173.551 103.038 172.6 103.509C171.658 103.98 170.915 104.626 170.37 105.448C169.835 106.27 169.572 107.216 169.581 108.287C169.572 109.303 169.816 110.189 170.315 110.946C170.823 111.703 171.547 112.29 172.489 112.705C173.431 113.121 174.548 113.328 175.841 113.328ZM175.841 99.8667C176.856 99.8667 177.757 99.6635 178.541 99.2573C179.335 98.851 179.959 98.2832 180.411 97.5538C180.863 96.8244 181.094 95.9703 181.104 94.9917C181.094 94.0314 180.868 93.1958 180.425 92.4849C179.982 91.7647 179.368 91.2108 178.583 90.823C177.798 90.426 176.884 90.2275 175.841 90.2275C174.779 90.2275 173.851 90.426 173.057 90.823C172.263 91.2108 171.649 91.7647 171.215 92.4849C170.781 93.1958 170.569 94.0314 170.578 94.9917C170.569 95.9703 170.786 96.8244 171.229 97.5538C171.681 98.2832 172.305 98.851 173.099 99.2573C173.893 99.6635 174.807 99.8667 175.841 99.8667ZM202.255 87.6238H206.355L215.994 111.168H216.326L225.965 87.6238H230.065V115.987H226.852V94.4377H226.575L217.711 115.987H214.609L205.745 94.4377H205.468V115.987H202.255V87.6238ZM242.768 116.486C241.42 116.486 240.197 116.232 239.098 115.724C237.999 115.207 237.127 114.464 236.481 113.494C235.834 112.516 235.511 111.334 235.511 109.949C235.511 108.73 235.751 107.742 236.231 106.985C236.711 106.219 237.353 105.619 238.156 105.185C238.96 104.751 239.846 104.428 240.815 104.215C241.794 103.994 242.777 103.818 243.765 103.689C245.058 103.523 246.106 103.398 246.909 103.315C247.722 103.223 248.313 103.07 248.682 102.858C249.06 102.646 249.25 102.276 249.25 101.75V101.639C249.25 100.273 248.876 99.2111 248.128 98.454C247.389 97.6969 246.267 97.3184 244.762 97.3184C243.202 97.3184 241.979 97.66 241.092 98.3432C240.206 99.0265 239.583 99.7559 239.223 100.531L236.12 99.4235C236.674 98.1309 237.413 97.1245 238.336 96.4043C239.269 95.6749 240.284 95.1671 241.383 94.8809C242.491 94.5854 243.581 94.4377 244.652 94.4377C245.335 94.4377 246.12 94.5208 247.006 94.687C247.902 94.8439 248.765 95.1717 249.596 95.6703C250.436 96.1689 251.133 96.9213 251.687 97.9277C252.241 98.9341 252.518 100.282 252.518 101.972V115.987H249.25V113.107H249.083C248.862 113.568 248.493 114.062 247.976 114.589C247.458 115.115 246.771 115.563 245.912 115.932C245.053 116.301 244.005 116.486 242.768 116.486ZM243.267 113.55C244.559 113.55 245.649 113.296 246.535 112.788C247.431 112.28 248.105 111.625 248.557 110.822C249.019 110.018 249.25 109.173 249.25 108.287V105.296C249.111 105.462 248.806 105.614 248.336 105.753C247.874 105.882 247.338 105.997 246.729 106.099C246.129 106.191 245.543 106.274 244.97 106.348C244.407 106.413 243.95 106.468 243.599 106.514C242.75 106.625 241.956 106.805 241.217 107.055C240.488 107.295 239.897 107.659 239.444 108.149C239.001 108.629 238.78 109.284 238.78 110.115C238.78 111.251 239.2 112.11 240.04 112.691C240.889 113.264 241.965 113.55 243.267 113.55ZM259.827 123.965C259.273 123.965 258.779 123.919 258.345 123.826C257.911 123.743 257.611 123.66 257.445 123.577L258.276 120.696C259.07 120.899 259.772 120.973 260.381 120.918C260.991 120.862 261.531 120.59 262.002 120.101C262.482 119.621 262.92 118.84 263.317 117.76L263.927 116.098L256.06 94.7147H259.606L265.478 111.666H265.699L271.572 94.7147H275.117L266.087 119.09C265.681 120.188 265.178 121.098 264.578 121.818C263.977 122.547 263.28 123.088 262.486 123.438C261.701 123.789 260.815 123.965 259.827 123.965Z" fill="white"/>
<path d="M354.271 34.7239L838.734 23.8994V192.453C737.926 192.453 826.097 127.506 505.929 159.979C185.762 192.453 500.65 105.09 354.271 34.7239Z" fill="white" fill-opacity="0.69"/>
<path d="M468.904 84.6238H471.728L477.376 94.1294H477.615L483.262 84.6238H486.086L478.728 96.5954V104.987H476.262V96.5954L468.904 84.6238ZM493.002 105.306C491.623 105.306 490.413 104.977 489.372 104.321C488.338 103.665 487.53 102.747 486.946 101.567C486.37 100.387 486.081 99.0082 486.081 97.4306C486.081 95.8397 486.37 94.4509 486.946 93.2644C487.53 92.0778 488.338 91.1564 489.372 90.5002C490.413 89.8439 491.623 89.5158 493.002 89.5158C494.38 89.5158 495.587 89.8439 496.621 90.5002C497.662 91.1564 498.47 92.0778 499.047 93.2644C499.63 94.4509 499.922 95.8397 499.922 97.4306C499.922 99.0082 499.63 100.387 499.047 101.567C498.47 102.747 497.662 103.665 496.621 104.321C495.587 104.977 494.38 105.306 493.002 105.306ZM493.002 103.198C494.049 103.198 494.911 102.929 495.587 102.392C496.263 101.855 496.764 101.149 497.088 100.274C497.413 99.3993 497.576 98.4514 497.576 97.4306C497.576 96.4097 497.413 95.4585 497.088 94.5769C496.764 93.6953 496.263 92.9827 495.587 92.4391C494.911 91.8955 494.049 91.6238 493.002 91.6238C491.954 91.6238 491.093 91.8955 490.416 92.4391C489.74 92.9827 489.24 93.6953 488.915 94.5769C488.59 95.4585 488.428 96.4097 488.428 97.4306C488.428 98.4514 488.59 99.3993 488.915 100.274C489.24 101.149 489.74 101.855 490.416 102.392C491.093 102.929 491.954 103.198 493.002 103.198ZM513.129 98.7431V89.7147H515.476V104.987H513.129V102.402H512.97C512.612 103.178 512.055 103.837 511.3 104.381C510.544 104.918 509.589 105.186 508.436 105.186C507.481 105.186 506.633 104.977 505.891 104.56C505.148 104.136 504.565 103.499 504.141 102.651C503.716 101.796 503.504 100.718 503.504 99.4192V89.7147H505.851V99.2601C505.851 100.374 506.162 101.262 506.785 101.925C507.415 102.588 508.217 102.919 509.192 102.919C509.775 102.919 510.368 102.77 510.972 102.472C511.581 102.173 512.092 101.716 512.503 101.1C512.92 100.483 513.129 99.6976 513.129 98.7431ZM532.143 105.345C531.175 105.345 530.297 105.163 529.508 104.798C528.719 104.427 528.093 103.894 527.629 103.198C527.165 102.495 526.933 101.646 526.933 100.652C526.933 99.7772 527.105 99.0679 527.45 98.5243C527.795 97.9741 528.255 97.5433 528.832 97.2317C529.409 96.9202 530.045 96.6882 530.741 96.5357C531.444 96.3766 532.15 96.2507 532.859 96.1579C533.787 96.0385 534.539 95.949 535.116 95.8894C535.699 95.8231 536.124 95.7137 536.389 95.5613C536.661 95.4088 536.796 95.1436 536.796 94.7658V94.6863C536.796 93.7052 536.528 92.9429 535.991 92.3993C535.461 91.8558 534.655 91.584 533.575 91.584C532.455 91.584 531.576 91.8293 530.94 92.3198C530.304 92.8103 529.856 93.334 529.598 93.8908L527.37 93.0954C527.768 92.1673 528.298 91.4448 528.961 90.9277C529.631 90.4041 530.36 90.0395 531.149 89.834C531.944 89.6219 532.726 89.5158 533.495 89.5158C533.986 89.5158 534.549 89.5755 535.186 89.6948C535.829 89.8075 536.448 90.0428 537.045 90.4007C537.648 90.7587 538.149 91.2989 538.546 92.0215C538.944 92.744 539.143 93.7118 539.143 94.9249V104.987H536.796V102.919H536.677C536.518 103.251 536.253 103.605 535.882 103.983C535.51 104.361 535.017 104.682 534.4 104.948C533.784 105.213 533.031 105.345 532.143 105.345ZM532.501 103.237C533.429 103.237 534.211 103.055 534.848 102.691C535.491 102.326 535.974 101.855 536.299 101.279C536.631 100.702 536.796 100.095 536.796 99.459V97.3113C536.697 97.4306 536.478 97.54 536.14 97.6394C535.809 97.7322 535.424 97.815 534.987 97.888C534.556 97.9543 534.135 98.0139 533.724 98.0669C533.32 98.1133 532.992 98.1531 532.74 98.1863C532.13 98.2658 531.56 98.3951 531.029 98.574C530.506 98.7464 530.081 99.0082 529.757 99.3596C529.438 99.7043 529.279 100.175 529.279 100.771C529.279 101.587 529.581 102.203 530.184 102.621C530.794 103.032 531.566 103.237 532.501 103.237ZM543.426 104.987V89.7147H545.693V92.0215H545.852C546.131 91.2658 546.634 90.6526 547.364 90.182C548.093 89.7114 548.915 89.476 549.829 89.476C550.002 89.476 550.217 89.4793 550.476 89.486C550.734 89.4926 550.93 89.5025 551.062 89.5158V91.9022C550.983 91.8823 550.801 91.8525 550.516 91.8127C550.237 91.7663 549.942 91.7431 549.631 91.7431C548.888 91.7431 548.225 91.8989 547.642 92.2104C547.065 92.5153 546.608 92.9396 546.27 93.4831C545.938 94.0201 545.773 94.6332 545.773 95.3226V104.987H543.426ZM559.783 105.306C558.311 105.306 557.042 104.981 555.974 104.331C554.914 103.675 554.095 102.76 553.518 101.587C552.948 100.407 552.663 99.0347 552.663 97.4704C552.663 95.906 552.948 94.5272 553.518 93.334C554.095 92.1342 554.897 91.1995 555.925 90.53C556.959 89.8539 558.165 89.5158 559.544 89.5158C560.339 89.5158 561.125 89.6484 561.9 89.9135C562.676 90.1787 563.382 90.6096 564.018 91.2061C564.655 91.7961 565.162 92.5783 565.54 93.5527C565.918 94.5272 566.106 95.727 566.106 97.1522V98.1465H554.334V96.1181H563.72C563.72 95.2563 563.548 94.4874 563.203 93.8113C562.865 93.1351 562.381 92.6015 561.751 92.2104C561.128 91.8193 560.392 91.6238 559.544 91.6238C558.609 91.6238 557.801 91.8558 557.118 92.3198C556.442 92.7772 555.921 93.3738 555.557 94.1096C555.192 94.8454 555.01 95.6342 555.01 96.476V97.8283C555.01 98.9817 555.209 99.9595 555.606 100.762C556.011 101.557 556.571 102.164 557.287 102.581C558.003 102.992 558.835 103.198 559.783 103.198C560.399 103.198 560.956 103.111 561.453 102.939C561.957 102.76 562.391 102.495 562.756 102.144C563.12 101.786 563.402 101.342 563.601 100.811L565.868 101.448C565.629 102.217 565.228 102.893 564.665 103.476C564.101 104.053 563.405 104.503 562.577 104.828C561.748 105.146 560.817 105.306 559.783 105.306ZM583.716 111.033C582.582 111.033 581.608 110.887 580.793 110.595C579.977 110.31 579.298 109.932 578.754 109.462C578.217 108.998 577.79 108.501 577.472 107.97L579.341 106.658C579.553 106.936 579.821 107.254 580.146 107.612C580.471 107.977 580.915 108.292 581.479 108.557C582.049 108.829 582.794 108.965 583.716 108.965C584.949 108.965 585.966 108.666 586.768 108.07C587.57 107.473 587.972 106.539 587.972 105.266V102.164H587.773C587.6 102.442 587.355 102.787 587.037 103.198C586.725 103.602 586.275 103.963 585.685 104.281C585.101 104.593 584.312 104.749 583.318 104.749C582.085 104.749 580.978 104.457 579.997 103.874C579.023 103.29 578.25 102.442 577.68 101.328C577.117 100.215 576.835 98.8624 576.835 97.2715C576.835 95.7071 577.11 94.3449 577.66 93.1848C578.211 92.0182 578.976 91.1167 579.957 90.4803C580.938 89.8373 582.072 89.5158 583.358 89.5158C584.352 89.5158 585.141 89.6815 585.724 90.013C586.314 90.3378 586.765 90.709 587.077 91.1266C587.395 91.5376 587.64 91.8757 587.812 92.1408H588.051V89.7147H590.318V105.425C590.318 106.737 590.02 107.805 589.423 108.627C588.833 109.455 588.038 110.062 587.037 110.446C586.043 110.837 584.936 111.033 583.716 111.033ZM583.636 102.641C584.578 102.641 585.373 102.425 586.023 101.994C586.672 101.564 587.166 100.944 587.504 100.135C587.842 99.3264 588.011 98.3586 588.011 97.2317C588.011 96.1313 587.846 95.1602 587.514 94.3184C587.183 93.4765 586.692 92.8169 586.043 92.3397C585.393 91.8624 584.591 91.6238 583.636 91.6238C582.642 91.6238 581.813 91.8757 581.15 92.3794C580.494 92.8832 580 93.5594 579.669 94.4079C579.344 95.2563 579.182 96.1976 579.182 97.2317C579.182 98.2923 579.347 99.2303 579.679 100.046C580.017 100.854 580.514 101.491 581.17 101.955C581.833 102.412 582.655 102.641 583.636 102.641ZM600.818 105.306C599.439 105.306 598.23 104.977 597.189 104.321C596.155 103.665 595.346 102.747 594.763 101.567C594.186 100.387 593.898 99.0082 593.898 97.4306C593.898 95.8397 594.186 94.4509 594.763 93.2644C595.346 92.0778 596.155 91.1564 597.189 90.5002C598.23 89.8439 599.439 89.5158 600.818 89.5158C602.197 89.5158 603.403 89.8439 604.437 90.5002C605.478 91.1564 606.287 92.0778 606.864 93.2644C607.447 94.4509 607.739 95.8397 607.739 97.4306C607.739 99.0082 607.447 100.387 606.864 101.567C606.287 102.747 605.478 103.665 604.437 104.321C603.403 104.977 602.197 105.306 600.818 105.306ZM600.818 103.198C601.865 103.198 602.727 102.929 603.403 102.392C604.079 101.855 604.58 101.149 604.905 100.274C605.23 99.3993 605.392 98.4514 605.392 97.4306C605.392 96.4097 605.23 95.4585 604.905 94.5769C604.58 93.6953 604.079 92.9827 603.403 92.4391C602.727 91.8955 601.865 91.6238 600.818 91.6238C599.771 91.6238 598.909 91.8955 598.233 92.4391C597.557 92.9827 597.056 93.6953 596.731 94.5769C596.407 95.4585 596.244 96.4097 596.244 97.4306C596.244 98.4514 596.407 99.3993 596.731 100.274C597.056 101.149 597.557 101.855 598.233 102.392C598.909 102.929 599.771 103.198 600.818 103.198ZM611.321 104.987V89.7147H613.667V104.987H611.321ZM612.514 87.1692C612.056 87.1692 611.662 87.0134 611.331 86.7019C611.006 86.3903 610.843 86.0158 610.843 85.5783C610.843 85.1408 611.006 84.7663 611.331 84.4547C611.662 84.1432 612.056 83.9874 612.514 83.9874C612.971 83.9874 613.362 84.1432 613.687 84.4547C614.018 84.7663 614.184 85.1408 614.184 85.5783C614.184 86.0158 614.018 86.3903 613.687 86.7019C613.362 87.0134 612.971 87.1692 612.514 87.1692ZM620.312 95.7999V104.987H617.965V89.7147H620.232V92.101H620.431C620.789 91.3255 621.333 90.7024 622.062 90.2317C622.791 89.7544 623.732 89.5158 624.886 89.5158C625.92 89.5158 626.824 89.7279 627.6 90.1522C628.376 90.5698 628.979 91.2061 629.41 92.0613C629.841 92.9097 630.056 93.9836 630.056 95.2829V104.987H627.709V95.4419C627.709 94.2421 627.398 93.3075 626.775 92.638C626.152 91.9618 625.297 91.6238 624.209 91.6238C623.46 91.6238 622.791 91.7862 622.201 92.111C621.618 92.4358 621.157 92.9097 620.819 93.5329C620.481 94.156 620.312 94.9116 620.312 95.7999ZM636.691 95.7999V104.987H634.344V89.7147H636.611V92.101H636.81C637.168 91.3255 637.711 90.7024 638.441 90.2317C639.17 89.7544 640.111 89.5158 641.264 89.5158C642.299 89.5158 643.203 89.7279 643.979 90.1522C644.755 90.5698 645.358 91.2061 645.789 92.0613C646.219 92.9097 646.435 93.9836 646.435 95.2829V104.987H644.088V95.4419C644.088 94.2421 643.777 93.3075 643.154 92.638C642.531 91.9618 641.675 91.6238 640.588 91.6238C639.839 91.6238 639.17 91.7862 638.58 92.111C637.996 92.4358 637.536 92.9097 637.198 93.5329C636.86 94.156 636.691 94.9116 636.691 95.7999ZM656.888 111.033C655.754 111.033 654.78 110.887 653.964 110.595C653.149 110.31 652.47 109.932 651.926 109.462C651.389 108.998 650.962 108.501 650.643 107.97L652.513 106.658C652.725 106.936 652.993 107.254 653.318 107.612C653.643 107.977 654.087 108.292 654.65 108.557C655.221 108.829 655.966 108.965 656.888 108.965C658.121 108.965 659.138 108.666 659.94 108.07C660.742 107.473 661.143 106.539 661.143 105.266V102.164H660.945C660.772 102.442 660.527 102.787 660.209 103.198C659.897 103.602 659.446 103.963 658.856 104.281C658.273 104.593 657.484 104.749 656.49 104.749C655.257 104.749 654.15 104.457 653.169 103.874C652.195 103.29 651.422 102.442 650.852 101.328C650.289 100.215 650.007 98.8624 650.007 97.2715C650.007 95.7071 650.282 94.3449 650.832 93.1848C651.382 92.0182 652.148 91.1167 653.129 90.4803C654.11 89.8373 655.244 89.5158 656.53 89.5158C657.524 89.5158 658.313 89.6815 658.896 90.013C659.486 90.3378 659.937 90.709 660.248 91.1266C660.567 91.5376 660.812 91.8757 660.984 92.1408H661.223V89.7147H663.49V105.425C663.49 106.737 663.192 107.805 662.595 108.627C662.005 109.455 661.21 110.062 660.209 110.446C659.214 110.837 658.107 111.033 656.888 111.033ZM656.808 102.641C657.749 102.641 658.545 102.425 659.195 101.994C659.844 101.564 660.338 100.944 660.676 100.135C661.014 99.3264 661.183 98.3586 661.183 97.2317C661.183 96.1313 661.017 95.1602 660.686 94.3184C660.355 93.4765 659.864 92.8169 659.214 92.3397C658.565 91.8624 657.763 91.6238 656.808 91.6238C655.814 91.6238 654.985 91.8757 654.322 92.3794C653.666 92.8832 653.172 93.5594 652.841 94.4079C652.516 95.2563 652.354 96.1976 652.354 97.2317C652.354 98.2923 652.519 99.2303 652.851 100.046C653.189 100.854 653.686 101.491 654.342 101.955C655.005 102.412 655.827 102.641 656.808 102.641ZM679.121 104.987L674.467 89.7147H676.933L680.234 101.408H680.393L683.655 89.7147H686.16L689.382 101.368H689.541L692.842 89.7147H695.308L690.655 104.987H688.348L685.007 93.2544H684.768L681.427 104.987H679.121ZM704.294 105.306C702.823 105.306 701.553 104.981 700.486 104.331C699.425 103.675 698.607 102.76 698.03 101.587C697.46 100.407 697.175 99.0347 697.175 97.4704C697.175 95.906 697.46 94.5272 698.03 93.334C698.607 92.1342 699.409 91.1995 700.436 90.53C701.47 89.8539 702.677 89.5158 704.056 89.5158C704.851 89.5158 705.637 89.6484 706.412 89.9135C707.188 90.1787 707.894 90.6096 708.53 91.2061C709.166 91.7961 709.674 92.5783 710.051 93.5527C710.429 94.5272 710.618 95.727 710.618 97.1522V98.1465H698.845V96.1181H708.232C708.232 95.2563 708.059 94.4874 707.715 93.8113C707.377 93.1351 706.893 92.6015 706.263 92.2104C705.64 91.8193 704.904 91.6238 704.056 91.6238C703.121 91.6238 702.312 91.8558 701.63 92.3198C700.953 92.7772 700.433 93.3738 700.068 94.1096C699.704 94.8454 699.522 95.6342 699.522 96.476V97.8283C699.522 98.9817 699.72 99.9595 700.118 100.762C700.523 101.557 701.083 102.164 701.799 102.581C702.514 102.992 703.346 103.198 704.294 103.198C704.911 103.198 705.468 103.111 705.965 102.939C706.469 102.76 706.903 102.495 707.267 102.144C707.632 101.786 707.914 101.342 708.112 100.811L710.38 101.448C710.141 102.217 709.74 102.893 709.176 103.476C708.613 104.053 707.917 104.503 707.088 104.828C706.26 105.146 705.328 105.306 704.294 105.306ZM716.534 84.6238V104.987H714.188V84.6238H716.534ZM723.179 84.6238V104.987H720.832V84.6238H723.179ZM732.806 87.6465L729.704 83.0329H732.448L734.875 87.6465H732.806Z" fill="white"/>
<path d="M66.0632 68.8998L66.0594 68.907L66.0554 68.9141C65.5354 69.8209 64.9537 71.3563 64.4061 73.1235C63.8621 74.8789 63.3628 76.8262 62.9997 78.5356C61.9932 83.6099 60.7281 86.7911 57.8882 88.4452C56.4798 89.2655 54.729 89.6829 52.5277 89.8172C50.3273 89.9514 47.6413 89.8044 44.3397 89.4685C39.3795 88.9878 36.5262 88.8553 34.7783 89.1754C33.9224 89.3322 33.3756 89.591 32.9832 89.9381C32.5887 90.2871 32.3052 90.7647 32.0451 91.4444C31.4012 93.2188 32.0173 95.4288 33.8042 97.7665C35.5809 100.091 38.4485 102.444 42.0666 104.432C46.8385 107.025 49.5271 109.53 49.8745 113.01C50.0461 114.729 49.6379 116.625 48.7226 118.803C47.8072 120.981 46.3697 123.477 44.4422 126.407C41.786 130.529 40.2151 133.262 39.4819 135.262C39.1177 136.255 38.9712 137.04 38.9889 137.704C39.0065 138.36 39.1847 138.924 39.5121 139.481L39.5122 139.481L39.5174 139.49C40.2587 140.814 41.1549 141.727 42.2102 142.272C43.2648 142.815 44.5213 143.012 46.0221 142.83C49.0497 142.463 52.9905 140.563 58.0098 137.029C60.6767 135.104 63.3909 133.371 65.6038 132.116C66.7099 131.489 67.6974 130.978 68.4951 130.622C68.8936 130.444 69.2517 130.302 69.5579 130.203C69.8534 130.108 70.1399 130.04 70.3806 130.04C70.6371 130.04 70.9387 130.104 71.2557 130.201C71.5805 130.299 71.955 130.441 72.3686 130.619C73.1962 130.976 74.2074 131.487 75.3365 132.114C77.5962 133.369 80.3563 135.102 83.1132 137.026C86.6718 139.509 89.4259 141.111 91.6604 142C93.8893 142.886 95.563 143.047 96.9843 142.697C98.6876 142.275 99.897 141.715 100.677 140.993C101.436 140.29 101.821 139.404 101.821 138.226C101.821 137.024 101.418 135.513 100.561 133.61C99.7063 131.713 98.4179 129.463 96.6862 126.792C94.6677 123.767 93.1817 121.208 92.2733 118.958C91.3633 116.704 91.0195 114.728 91.3256 112.882C91.9379 109.191 95.1088 106.261 100.68 102.724L100.68 102.724L100.687 102.72C103.983 100.707 106.022 99.2122 107.175 97.8226C107.745 97.137 108.088 96.4883 108.264 95.826C108.439 95.1631 108.454 94.4575 108.325 93.647L108.325 93.647L108.324 93.6393C108.187 92.6889 108.025 92.0302 107.743 91.5452C107.476 91.0875 107.081 90.7485 106.382 90.4944C105.662 90.2323 104.64 90.0678 103.15 89.9728C101.666 89.8781 99.7584 89.854 97.2871 89.854C94.082 89.854 91.5326 89.7944 89.4928 89.5912C87.4561 89.3883 85.8883 89.0393 84.6656 88.4378C82.1521 87.2015 81.2436 84.9732 80.5077 81.4126C79.2278 75.5768 77.9601 71.6726 76.4955 69.2341C75.7671 68.0213 75.0037 67.1949 74.1884 66.6704C73.3791 66.1498 72.4911 65.9088 71.4788 65.9088C70.3911 65.9088 69.24 66.2611 68.2483 66.8252C67.2527 67.3915 66.4643 68.1443 66.0632 68.8998Z" fill="white" stroke="black"/>
</svg>
