<svg width="850" height="200" viewBox="0 0 850 200" fill="none" xmlns="http://www.w3.org/2000/svg">
<rect width="850" height="200" rx="12" fill="#F1BD09"/>
<path d="M78.5491 78.7421C68.9246 85.4507 60.7259 91.9916 60.1912 93.3333C59.6565 94.5073 61.2606 98.0294 63.7559 101.216C67.677 105.912 68.2117 108.428 68.2117 119.161C68.2117 133.082 70.3504 136.604 78.0144 134.759C82.4702 133.753 82.4702 133.585 82.4702 115.639V97.3585L90.3124 92.1593C94.59 89.1405 98.6893 86.7925 99.4022 86.7925C99.9369 86.7925 104.036 89.3082 108.314 92.1593L116.156 97.6939L116.691 116.143L117.225 134.591H122.572H127.919L128.454 121.174C128.989 109.266 129.523 107.086 134.157 101.551C140.396 94.3396 139.861 92.3271 131.484 87.1279C125.781 83.7736 125.246 82.7673 125.246 75.0524V66.6667H117.404C113.126 66.6667 109.205 67.5052 108.849 68.5115C108.314 70.021 107.244 70.021 104.393 68.5115C102.254 67.5052 99.4022 66.6667 98.1546 66.6667C96.907 66.6667 87.9954 72.2013 78.5491 78.7421Z" fill="black"/>
<path d="M89.6451 109.35C87.5063 123.941 89.6451 128.302 98.735 128.302C108.181 128.302 109.429 126.96 109.429 117.233V108.176H99.6261C94.2792 108.176 89.8234 108.679 89.6451 109.35Z" fill="black"/>
<path d="M196.83 92.7138C196.525 91.7813 196.123 90.9457 195.625 90.2071C195.135 89.4592 194.549 88.8221 193.866 88.2959C193.192 87.7696 192.426 87.3679 191.567 87.091C190.708 86.814 189.767 86.6755 188.742 86.6755C187.061 86.6755 185.533 87.1094 184.157 87.9773C182.782 88.8452 181.688 90.124 180.875 91.8136C180.063 93.5032 179.656 95.576 179.656 98.032C179.656 100.488 180.067 102.561 180.889 104.25C181.711 105.94 182.823 107.219 184.227 108.087C185.63 108.955 187.209 109.389 188.963 109.389C190.588 109.389 192.019 109.042 193.257 108.35C194.503 107.648 195.472 106.66 196.165 105.386C196.867 104.103 197.218 102.593 197.218 100.857L198.27 101.079H189.739V98.032H200.541V101.079C200.541 103.415 200.043 105.446 199.046 107.173C198.058 108.899 196.691 110.238 194.946 111.189C193.21 112.131 191.216 112.602 188.963 112.602C186.452 112.602 184.245 112.011 182.343 110.829C180.45 109.647 178.973 107.967 177.911 105.788C176.859 103.609 176.333 101.023 176.333 98.032C176.333 95.7884 176.633 93.771 177.233 91.9798C177.842 90.1794 178.701 88.6467 179.809 87.3818C180.917 86.1169 182.228 85.1474 183.742 84.4734C185.256 83.7994 186.923 83.4624 188.742 83.4624C190.237 83.4624 191.632 83.6886 192.924 84.141C194.226 84.5842 195.385 85.2167 196.4 86.0384C197.425 86.8509 198.279 87.825 198.963 88.9606C199.646 90.087 200.117 91.3381 200.375 92.7138H196.83ZM214.9 112.657C212.85 112.657 211.082 112.205 209.595 111.3C208.118 110.386 206.978 109.112 206.175 107.477C205.381 105.834 204.984 103.923 204.984 101.744C204.984 99.5647 205.381 97.6442 206.175 95.9823C206.978 94.3111 208.095 93.0093 209.526 92.0767C210.967 91.135 212.647 90.6641 214.567 90.6641C215.675 90.6641 216.769 90.8488 217.85 91.2181C218.93 91.5874 219.913 92.1875 220.8 93.0185C221.686 93.8402 222.392 94.9297 222.919 96.287C223.445 97.6442 223.708 99.3154 223.708 101.3V102.685H207.31V99.8601H220.384C220.384 98.6598 220.144 97.5888 219.664 96.6471C219.193 95.7053 218.519 94.962 217.642 94.4173C216.774 93.8726 215.749 93.6002 214.567 93.6002C213.266 93.6002 212.139 93.9233 211.188 94.5696C210.246 95.2067 209.522 96.0377 209.014 97.0625C208.506 98.0874 208.252 99.1861 208.252 100.359V102.242C208.252 103.849 208.529 105.211 209.083 106.328C209.646 107.436 210.426 108.281 211.424 108.862C212.421 109.435 213.579 109.721 214.9 109.721C215.758 109.721 216.534 109.601 217.226 109.361C217.928 109.112 218.533 108.742 219.041 108.253C219.549 107.754 219.941 107.136 220.218 106.397L223.376 107.283C223.043 108.354 222.485 109.296 221.7 110.109C220.915 110.912 219.946 111.54 218.791 111.992C217.637 112.435 216.34 112.657 214.9 112.657ZM231.948 99.4169V112.214H228.68V90.9411H231.838V94.265H232.115C232.613 93.1847 233.37 92.3168 234.386 91.6613C235.402 90.9965 236.713 90.6641 238.319 90.6641C239.759 90.6641 241.02 90.9596 242.1 91.5505C243.18 92.1321 244.021 93.0185 244.621 94.2096C245.221 95.3914 245.521 96.8871 245.521 98.6968V112.214H242.252V98.9184C242.252 97.2472 241.818 95.9454 240.951 95.0128C240.083 94.0711 238.892 93.6002 237.377 93.6002C236.334 93.6002 235.402 93.8264 234.58 94.2788C233.767 94.7312 233.126 95.3914 232.655 96.2593C232.184 97.1272 231.948 98.1797 231.948 99.4169ZM260.135 112.657C258.141 112.657 256.424 112.186 254.983 111.244C253.543 110.303 252.435 109.005 251.66 107.353C250.884 105.7 250.496 103.812 250.496 101.688C250.496 99.5277 250.893 97.6211 251.687 95.9684C252.491 94.3065 253.608 93.0093 255.039 92.0767C256.479 91.135 258.16 90.6641 260.08 90.6641C261.576 90.6641 262.924 90.9411 264.124 91.4951C265.324 92.049 266.308 92.8246 267.074 93.8218C267.84 94.8189 268.316 95.9823 268.501 97.3118H265.232C264.983 96.3424 264.429 95.4837 263.57 94.7358C262.721 93.9787 261.576 93.6002 260.135 93.6002C258.861 93.6002 257.744 93.9326 256.784 94.5973C255.833 95.2529 255.09 96.1808 254.554 97.3811C254.028 98.5721 253.765 99.9709 253.765 101.577C253.765 103.221 254.023 104.652 254.54 105.871C255.067 107.09 255.805 108.036 256.756 108.71C257.716 109.384 258.843 109.721 260.135 109.721C260.985 109.721 261.756 109.573 262.448 109.278C263.141 108.982 263.727 108.558 264.207 108.004C264.687 107.45 265.029 106.785 265.232 106.009H268.501C268.316 107.265 267.859 108.396 267.129 109.402C266.409 110.4 265.454 111.194 264.263 111.784C263.081 112.366 261.705 112.657 260.135 112.657ZM276.547 83.8502V112.214H273.279V83.8502H276.547ZM282.533 112.214V90.9411H285.802V112.214H282.533ZM284.195 87.3956C283.558 87.3956 283.009 87.1787 282.547 86.7447C282.095 86.3108 281.869 85.7891 281.869 85.1797C281.869 84.5704 282.095 84.0487 282.547 83.6147C283.009 83.1808 283.558 82.9638 284.195 82.9638C284.832 82.9638 285.377 83.1808 285.83 83.6147C286.291 84.0487 286.522 84.5704 286.522 85.1797C286.522 85.7891 286.291 86.3108 285.83 86.7447C285.377 87.1787 284.832 87.3956 284.195 87.3956ZM294.835 104.458L294.78 100.414H295.445L304.751 90.9411H308.795L298.879 100.968H298.602L294.835 104.458ZM291.788 112.214V83.8502H295.057V112.214H291.788ZM305.305 112.214L296.996 101.688L299.322 99.4169L309.46 112.214H305.305Z" fill="black"/>
<path d="M345.508 34.7239L829.97 23.8994V192.453C729.163 192.453 817.333 127.506 497.166 159.979C176.998 192.453 491.887 105.09 345.508 34.7239Z" fill="white" fill-opacity="0.69"/>
<path d="M410.528 72.0452V92.4088H408.063V72.0452H410.528ZM421.797 77.1361V79.1247H413.882V77.1361H421.797ZM416.189 73.477H418.535V88.0338C418.535 88.6967 418.631 89.1938 418.824 89.5253C419.022 89.8501 419.274 90.0688 419.579 90.1815C419.891 90.2876 420.219 90.3406 420.564 90.3406C420.822 90.3406 421.034 90.3274 421.2 90.3008C421.366 90.2677 421.498 90.2412 421.598 90.2213L422.075 92.3293C421.916 92.3889 421.694 92.4486 421.409 92.5082C421.124 92.5745 420.763 92.6077 420.325 92.6077C419.662 92.6077 419.013 92.4651 418.376 92.1801C417.746 91.8951 417.223 91.4609 416.805 90.8775C416.394 90.2942 416.189 89.5584 416.189 88.6702V73.477ZM428.188 72.0452V73.8349C428.188 74.3785 428.088 74.9585 427.889 75.575C427.697 76.1848 427.412 76.7781 427.034 77.3548C426.663 77.9249 426.212 78.4221 425.682 78.8463L424.409 77.8122C424.827 77.2156 425.188 76.5958 425.493 75.9528C425.805 75.3032 425.96 74.6105 425.96 73.8747V72.0452H428.188ZM439.945 80.5565L437.837 81.1531C437.705 80.8018 437.509 80.4604 437.251 80.129C436.999 79.7909 436.654 79.5125 436.217 79.2937C435.779 79.075 435.219 78.9656 434.536 78.9656C433.602 78.9656 432.823 79.1811 432.2 79.6119C431.583 80.0362 431.275 80.5764 431.275 81.2327C431.275 81.816 431.487 82.2767 431.911 82.6148C432.336 82.9528 432.998 83.2346 433.9 83.4599L436.167 84.0168C437.533 84.3482 438.55 84.8553 439.22 85.5381C439.889 86.2142 440.224 87.0859 440.224 88.1531C440.224 89.0281 439.972 89.8103 439.468 90.4997C438.971 91.1891 438.275 91.7327 437.38 92.1304C436.485 92.5281 435.444 92.727 434.258 92.727C432.7 92.727 431.411 92.3889 430.39 91.7128C429.369 91.0366 428.723 90.0489 428.451 88.7497L430.678 88.1929C430.89 89.0149 431.292 89.6313 431.881 90.0423C432.478 90.4533 433.257 90.6588 434.218 90.6588C435.312 90.6588 436.18 90.4268 436.823 89.9628C437.473 89.4921 437.798 88.9287 437.798 88.2724C437.798 87.7421 437.612 87.298 437.241 86.94C436.87 86.5755 436.3 86.3037 435.531 86.1247L432.985 85.5281C431.586 85.1967 430.559 84.6829 429.903 83.9869C429.253 83.2843 428.928 82.406 428.928 81.352C428.928 80.4902 429.17 79.7279 429.654 79.065C430.145 78.4022 430.811 77.8818 431.653 77.504C432.501 77.1261 433.462 76.9372 434.536 76.9372C436.048 76.9372 437.234 77.2686 438.096 77.9315C438.964 78.5944 439.581 79.4694 439.945 80.5565ZM455.091 92.4088L450.438 77.1361H452.904L456.205 88.8293H456.364L459.625 77.1361H462.131L465.353 88.7895H465.512L468.813 77.1361H471.279L466.625 92.4088H464.319L460.978 80.6758H460.739L457.398 92.4088H455.091ZM476.728 83.2213V92.4088H474.381V72.0452H476.728V79.5224H476.927C477.285 78.7336 477.821 78.1072 478.537 77.6432C479.26 77.1725 480.221 76.9372 481.421 76.9372C482.462 76.9372 483.373 77.146 484.155 77.5636C484.937 77.9746 485.544 78.6077 485.975 79.4628C486.412 80.3113 486.631 81.3918 486.631 82.7043V92.4088H484.285V82.8633C484.285 81.6503 483.97 80.7123 483.34 80.0494C482.717 79.3799 481.852 79.0452 480.745 79.0452C479.976 79.0452 479.286 79.2076 478.677 79.5324C478.073 79.8572 477.596 80.3311 477.245 80.9543C476.9 81.5774 476.728 82.333 476.728 83.2213ZM497.328 92.727C495.856 92.727 494.586 92.4022 493.519 91.7525C492.459 91.0963 491.64 90.1815 491.063 89.0082C490.493 87.8283 490.208 86.4561 490.208 84.8918C490.208 83.3274 490.493 81.9486 491.063 80.7554C491.64 79.5556 492.442 78.6209 493.47 77.9514C494.504 77.2753 495.71 76.9372 497.089 76.9372C497.884 76.9372 498.67 77.0698 499.445 77.3349C500.221 77.6001 500.927 78.031 501.563 78.6275C502.2 79.2175 502.707 79.9997 503.085 80.9741C503.462 81.9486 503.651 83.1484 503.651 84.5736V85.5679H491.879V83.5395H501.265C501.265 82.6777 501.093 81.9088 500.748 81.2327C500.41 80.5565 499.926 80.0229 499.296 79.6318C498.673 79.2407 497.937 79.0452 497.089 79.0452C496.154 79.0452 495.345 79.2772 494.663 79.7412C493.987 80.1986 493.466 80.7952 493.102 81.531C492.737 82.2668 492.555 83.0556 492.555 83.8974V85.2497C492.555 86.4031 492.754 87.3809 493.151 88.1829C493.556 88.9784 494.116 89.5849 494.832 90.0025C495.548 90.4135 496.38 90.619 497.328 90.619C497.944 90.619 498.501 90.5329 498.998 90.3605C499.502 90.1815 499.936 89.9164 500.301 89.565C500.665 89.2071 500.947 88.763 501.146 88.2327L503.413 88.869C503.174 89.638 502.773 90.3141 502.21 90.8974C501.646 91.4741 500.95 91.9249 500.122 92.2497C499.293 92.5679 498.362 92.727 497.328 92.727ZM507.221 92.4088V77.1361H509.488V79.4429H509.647C509.926 78.6872 510.429 78.074 511.158 77.6034C511.888 77.1328 512.71 76.8974 513.624 76.8974C513.797 76.8974 514.012 76.9007 514.271 76.9074C514.529 76.914 514.725 76.9239 514.857 76.9372V79.3236C514.778 79.3037 514.595 79.2739 514.31 79.2341C514.032 79.1877 513.737 79.1645 513.426 79.1645C512.683 79.1645 512.02 79.3203 511.437 79.6318C510.86 79.9367 510.403 80.361 510.065 80.9045C509.733 81.4415 509.568 82.0546 509.568 82.744V92.4088H507.221ZM523.578 92.727C522.106 92.727 520.836 92.4022 519.769 91.7525C518.709 91.0963 517.89 90.1815 517.313 89.0082C516.743 87.8283 516.458 86.4561 516.458 84.8918C516.458 83.3274 516.743 81.9486 517.313 80.7554C517.89 79.5556 518.692 78.6209 519.72 77.9514C520.754 77.2753 521.96 76.9372 523.339 76.9372C524.134 76.9372 524.92 77.0698 525.695 77.3349C526.471 77.6001 527.177 78.031 527.813 78.6275C528.45 79.2175 528.957 79.9997 529.335 80.9741C529.712 81.9486 529.901 83.1484 529.901 84.5736V85.5679H518.129V83.5395H527.515C527.515 82.6777 527.343 81.9088 526.998 81.2327C526.66 80.5565 526.176 80.0229 525.546 79.6318C524.923 79.2407 524.187 79.0452 523.339 79.0452C522.404 79.0452 521.595 79.2772 520.913 79.7412C520.237 80.1986 519.716 80.7952 519.352 81.531C518.987 82.2668 518.805 83.0556 518.805 83.8974V85.2497C518.805 86.4031 519.004 87.3809 519.401 88.1829C519.806 88.9784 520.366 89.5849 521.082 90.0025C521.798 90.4135 522.63 90.619 523.578 90.619C524.194 90.619 524.751 90.5329 525.248 90.3605C525.752 90.1815 526.186 89.9164 526.551 89.565C526.915 89.2071 527.197 88.763 527.396 88.2327L529.663 88.869C529.424 89.638 529.023 90.3141 528.46 90.8974C527.896 91.4741 527.2 91.9249 526.372 92.2497C525.543 92.5679 524.612 92.727 523.578 92.727ZM552.164 80.5565L550.056 81.1531C549.924 80.8018 549.728 80.4604 549.47 80.129C549.218 79.7909 548.873 79.5125 548.435 79.2937C547.998 79.075 547.438 78.9656 546.755 78.9656C545.82 78.9656 545.042 79.1811 544.418 79.6119C543.802 80.0362 543.494 80.5764 543.494 81.2327C543.494 81.816 543.706 82.2767 544.13 82.6148C544.554 82.9528 545.217 83.2346 546.119 83.4599L548.386 84.0168C549.751 84.3482 550.769 84.8553 551.438 85.5381C552.108 86.2142 552.443 87.0859 552.443 88.1531C552.443 89.0281 552.191 89.8103 551.687 90.4997C551.19 91.1891 550.494 91.7327 549.599 92.1304C548.704 92.5281 547.663 92.727 546.477 92.727C544.919 92.727 543.63 92.3889 542.609 91.7128C541.588 91.0366 540.942 90.0489 540.67 88.7497L542.897 88.1929C543.109 89.0149 543.51 89.6313 544.1 90.0423C544.697 90.4533 545.476 90.6588 546.437 90.6588C547.531 90.6588 548.399 90.4268 549.042 89.9628C549.692 89.4921 550.016 88.9287 550.016 88.2724C550.016 87.7421 549.831 87.298 549.46 86.94C549.088 86.5755 548.518 86.3037 547.749 86.1247L545.204 85.5281C543.805 85.1967 542.778 84.6829 542.122 83.9869C541.472 83.2843 541.147 82.406 541.147 81.352C541.147 80.4902 541.389 79.7279 541.873 79.065C542.363 78.4022 543.03 77.8818 543.872 77.504C544.72 77.1261 545.681 76.9372 546.755 76.9372C548.266 76.9372 549.453 77.2686 550.315 77.9315C551.183 78.5944 551.8 79.4694 552.164 80.5565ZM562.617 77.1361V79.1247H554.702V77.1361H562.617ZM557.009 73.477H559.356V88.0338C559.356 88.6967 559.452 89.1938 559.644 89.5253C559.843 89.8501 560.095 90.0688 560.4 90.1815C560.711 90.2876 561.039 90.3406 561.384 90.3406C561.642 90.3406 561.855 90.3274 562.02 90.3008C562.186 90.2677 562.319 90.2412 562.418 90.2213L562.895 92.3293C562.736 92.3889 562.514 92.4486 562.229 92.5082C561.944 92.5745 561.583 92.6077 561.145 92.6077C560.482 92.6077 559.833 92.4651 559.196 92.1801C558.567 91.8951 558.043 91.4609 557.625 90.8775C557.214 90.2942 557.009 89.5584 557.009 88.6702V73.477ZM572.187 92.727C570.808 92.727 569.599 92.3989 568.558 91.7426C567.524 91.0864 566.715 90.1683 566.132 88.9883C565.555 87.8084 565.267 86.4296 565.267 84.852C565.267 83.2611 565.555 81.8723 566.132 80.6858C566.715 79.4992 567.524 78.5778 568.558 77.9216C569.599 77.2653 570.808 76.9372 572.187 76.9372C573.566 76.9372 574.772 77.2653 575.807 77.9216C576.847 78.5778 577.656 79.4992 578.233 80.6858C578.816 81.8723 579.108 83.2611 579.108 84.852C579.108 86.4296 578.816 87.8084 578.233 88.9883C577.656 90.1683 576.847 91.0864 575.807 91.7426C574.772 92.3989 573.566 92.727 572.187 92.727ZM572.187 90.619C573.235 90.619 574.096 90.3506 574.772 89.8136C575.449 89.2767 575.949 88.5707 576.274 87.6957C576.599 86.8207 576.761 85.8728 576.761 84.852C576.761 83.8311 576.599 82.8799 576.274 81.9983C575.949 81.1167 575.449 80.4041 574.772 79.8605C574.096 79.3169 573.235 79.0452 572.187 79.0452C571.14 79.0452 570.278 79.3169 569.602 79.8605C568.926 80.4041 568.425 81.1167 568.101 81.9983C567.776 82.8799 567.613 83.8311 567.613 84.852C567.613 85.8728 567.776 86.8207 568.101 87.6957C568.425 88.5707 568.926 89.2767 569.602 89.8136C570.278 90.3506 571.14 90.619 572.187 90.619ZM582.69 92.4088V77.1361H584.957V79.4429H585.116C585.394 78.6872 585.898 78.074 586.627 77.6034C587.356 77.1328 588.178 76.8974 589.093 76.8974C589.265 76.8974 589.481 76.9007 589.739 76.9074C589.998 76.914 590.194 76.9239 590.326 76.9372V79.3236C590.247 79.3037 590.064 79.2739 589.779 79.2341C589.501 79.1877 589.206 79.1645 588.894 79.1645C588.152 79.1645 587.489 79.3203 586.906 79.6318C586.329 79.9367 585.872 80.361 585.533 80.9045C585.202 81.4415 585.036 82.0546 585.036 82.744V92.4088H582.69ZM595.084 98.1361C594.686 98.1361 594.332 98.1029 594.02 98.0366C593.708 97.977 593.493 97.9173 593.374 97.8577L593.97 95.7895C594.54 95.9353 595.044 95.9883 595.482 95.9486C595.919 95.9088 596.307 95.7132 596.645 95.3619C596.99 95.0172 597.305 94.4571 597.59 93.6815L598.027 92.4883L592.379 77.1361H594.925L599.141 89.3065H599.3L603.516 77.1361H606.061L599.578 94.6361C599.287 95.4249 598.925 96.0778 598.494 96.5949C598.064 97.1186 597.563 97.5063 596.993 97.7582C596.43 98.0101 595.793 98.1361 595.084 98.1361ZM627.852 80.5565L625.744 81.1531C625.611 80.8018 625.416 80.4604 625.157 80.129C624.905 79.7909 624.56 79.5125 624.123 79.2937C623.685 79.075 623.125 78.9656 622.443 78.9656C621.508 78.9656 620.729 79.1811 620.106 79.6119C619.489 80.0362 619.181 80.5764 619.181 81.2327C619.181 81.816 619.393 82.2767 619.818 82.6148C620.242 82.9528 620.905 83.2346 621.806 83.4599L624.073 84.0168C625.439 84.3482 626.456 84.8553 627.126 85.5381C627.795 86.2142 628.13 87.0859 628.13 88.1531C628.13 89.0281 627.878 89.8103 627.374 90.4997C626.877 91.1891 626.181 91.7327 625.286 92.1304C624.391 92.5281 623.351 92.727 622.164 92.727C620.606 92.727 619.317 92.3889 618.296 91.7128C617.275 91.0366 616.629 90.0489 616.357 88.7497L618.585 88.1929C618.797 89.0149 619.198 89.6313 619.788 90.0423C620.384 90.4533 621.163 90.6588 622.124 90.6588C623.218 90.6588 624.087 90.4268 624.729 89.9628C625.379 89.4921 625.704 88.9287 625.704 88.2724C625.704 87.7421 625.518 87.298 625.147 86.94C624.776 86.5755 624.206 86.3037 623.437 86.1247L620.891 85.5281C619.493 85.1967 618.465 84.6829 617.809 83.9869C617.159 83.2843 616.835 82.406 616.835 81.352C616.835 80.4902 617.077 79.7279 617.56 79.065C618.051 78.4022 618.717 77.8818 619.559 77.504C620.408 77.1261 621.369 76.9372 622.443 76.9372C623.954 76.9372 625.14 77.2686 626.002 77.9315C626.871 78.5944 627.487 79.4694 627.852 80.5565ZM638.304 77.1361V79.1247H630.39V77.1361H638.304ZM632.696 73.477H635.043V88.0338C635.043 88.6967 635.139 89.1938 635.331 89.5253C635.53 89.8501 635.782 90.0688 636.087 90.1815C636.399 90.2876 636.727 90.3406 637.071 90.3406C637.33 90.3406 637.542 90.3274 637.708 90.3008C637.874 90.2677 638.006 90.2412 638.106 90.2213L638.583 92.3293C638.424 92.3889 638.202 92.4486 637.917 92.5082C637.632 92.5745 637.27 92.6077 636.833 92.6077C636.17 92.6077 635.52 92.4651 634.884 92.1801C634.254 91.8951 633.731 91.4609 633.313 90.8775C632.902 90.2942 632.696 89.5584 632.696 88.6702V73.477ZM646.329 92.7668C645.361 92.7668 644.482 92.5845 643.694 92.2199C642.905 91.8487 642.278 91.315 641.814 90.619C641.35 89.9164 641.118 89.0679 641.118 88.0736C641.118 87.1986 641.291 86.4893 641.635 85.9457C641.98 85.3955 642.441 84.9647 643.017 84.6531C643.594 84.3416 644.231 84.1096 644.927 83.9571C645.629 83.798 646.335 83.6721 647.044 83.5793C647.973 83.4599 648.725 83.3704 649.302 83.3108C649.885 83.2445 650.309 83.1351 650.574 82.9827C650.846 82.8302 650.982 82.565 650.982 82.1872V82.1077C650.982 81.1266 650.714 80.3643 650.177 79.8207C649.646 79.2772 648.841 79.0054 647.76 79.0054C646.64 79.0054 645.762 79.2507 645.125 79.7412C644.489 80.2317 644.042 80.7554 643.783 81.3122L641.556 80.5168C641.954 79.5887 642.484 78.8662 643.147 78.3491C643.816 77.8255 644.545 77.4609 645.334 77.2554C646.13 77.0433 646.912 76.9372 647.681 76.9372C648.171 76.9372 648.735 76.9969 649.371 77.1162C650.014 77.2289 650.634 77.4642 651.231 77.8221C651.834 78.1801 652.334 78.7204 652.732 79.4429C653.13 80.1654 653.329 81.1332 653.329 82.3463V92.4088H650.982V90.3406H650.863C650.704 90.6721 650.438 91.0267 650.067 91.4045C649.696 91.7824 649.202 92.1039 648.586 92.369C647.969 92.6342 647.217 92.7668 646.329 92.7668ZM646.687 90.6588C647.615 90.6588 648.397 90.4765 649.033 90.1119C649.676 89.7473 650.16 89.2767 650.485 88.7C650.816 88.1233 650.982 87.5168 650.982 86.8804V84.7327C650.883 84.852 650.664 84.9614 650.326 85.0608C649.994 85.1536 649.61 85.2364 649.172 85.3094C648.741 85.3757 648.321 85.4353 647.91 85.4883C647.505 85.5347 647.177 85.5745 646.925 85.6077C646.315 85.6872 645.745 85.8165 645.215 85.9954C644.691 86.1678 644.267 86.4296 643.942 86.781C643.624 87.1257 643.465 87.5963 643.465 88.1929C643.465 89.0082 643.767 89.6247 644.37 90.0423C644.98 90.4533 645.752 90.6588 646.687 90.6588ZM657.612 92.4088V77.1361H659.879V79.4429H660.038C660.316 78.6872 660.82 78.074 661.549 77.6034C662.278 77.1328 663.1 76.8974 664.015 76.8974C664.187 76.8974 664.403 76.9007 664.661 76.9074C664.92 76.914 665.115 76.9239 665.248 76.9372V79.3236C665.168 79.3037 664.986 79.2739 664.701 79.2341C664.423 79.1877 664.128 79.1645 663.816 79.1645C663.074 79.1645 662.411 79.3203 661.828 79.6318C661.251 79.9367 660.793 80.361 660.455 80.9045C660.124 81.4415 659.958 82.0546 659.958 82.744V92.4088H657.612ZM675.629 77.1361V79.1247H667.714V77.1361H675.629ZM670.021 73.477H672.367V88.0338C672.367 88.6967 672.463 89.1938 672.656 89.5253C672.854 89.8501 673.106 90.0688 673.411 90.1815C673.723 90.2876 674.051 90.3406 674.396 90.3406C674.654 90.3406 674.866 90.3274 675.032 90.3008C675.198 90.2677 675.33 90.2412 675.43 90.2213L675.907 92.3293C675.748 92.3889 675.526 92.4486 675.241 92.5082C674.956 92.5745 674.595 92.6077 674.157 92.6077C673.494 92.6077 672.845 92.4651 672.208 92.1801C671.578 91.8951 671.055 91.4609 670.637 90.8775C670.226 90.2942 670.021 89.5584 670.021 88.6702V73.477ZM685.398 92.727C683.926 92.727 682.657 92.4022 681.59 91.7525C680.529 91.0963 679.71 90.1815 679.134 89.0082C678.564 87.8283 678.278 86.4561 678.278 84.8918C678.278 83.3274 678.564 81.9486 679.134 80.7554C679.71 79.5556 680.512 78.6209 681.54 77.9514C682.574 77.2753 683.78 76.9372 685.159 76.9372C685.955 76.9372 686.74 77.0698 687.516 77.3349C688.291 77.6001 688.997 78.031 689.634 78.6275C690.27 79.2175 690.777 79.9997 691.155 80.9741C691.533 81.9486 691.722 83.1484 691.722 84.5736V85.5679H679.949V83.5395H689.335C689.335 82.6777 689.163 81.9088 688.818 81.2327C688.48 80.5565 687.996 80.0229 687.367 79.6318C686.743 79.2407 686.008 79.0452 685.159 79.0452C684.225 79.0452 683.416 79.2772 682.733 79.7412C682.057 80.1986 681.537 80.7952 681.172 81.531C680.807 82.2668 680.625 83.0556 680.625 83.8974V85.2497C680.625 86.4031 680.824 87.3809 681.222 88.1829C681.626 88.9784 682.186 89.5849 682.902 90.0025C683.618 90.4135 684.45 90.619 685.398 90.619C686.014 90.619 686.571 90.5329 687.068 90.3605C687.572 90.1815 688.006 89.9164 688.371 89.565C688.735 89.2071 689.017 88.763 689.216 88.2327L691.483 88.869C691.244 89.638 690.843 90.3141 690.28 90.8974C689.716 91.4741 689.02 91.9249 688.192 92.2497C687.363 92.5679 686.432 92.727 685.398 92.727ZM701.058 92.727C699.786 92.727 698.662 92.4055 697.688 91.7625C696.713 91.1129 695.951 90.1981 695.401 89.0182C694.85 87.8316 694.575 86.4296 694.575 84.8122C694.575 83.208 694.85 81.816 695.401 80.6361C695.951 79.4561 696.716 78.5447 697.698 77.9017C698.679 77.2587 699.812 76.9372 701.098 76.9372C702.092 76.9372 702.878 77.1029 703.455 77.4344C704.038 77.7592 704.482 78.1304 704.787 78.548C705.099 78.959 705.341 79.2971 705.513 79.5622H705.712V72.0452H708.058V92.4088H705.791V90.0622H705.513C705.341 90.3406 705.095 90.6919 704.777 91.1162C704.459 91.5338 704.005 91.9083 703.415 92.2398C702.825 92.5646 702.039 92.727 701.058 92.727ZM701.377 90.619C702.318 90.619 703.113 90.3738 703.763 89.8832C704.412 89.3861 704.906 88.7 705.244 87.825C705.582 86.9434 705.752 85.9258 705.752 84.7724C705.752 83.6323 705.586 82.6346 705.254 81.7795C704.923 80.9178 704.432 80.2483 703.783 79.771C703.133 79.2871 702.331 79.0452 701.377 79.0452C700.382 79.0452 699.554 79.3004 698.891 79.8108C698.234 80.3146 697.741 81.0007 697.409 81.869C697.084 82.7308 696.922 83.6986 696.922 84.7724C696.922 85.8596 697.088 86.8472 697.419 87.7355C697.757 88.6171 698.254 89.3198 698.911 89.8435C699.573 90.3605 700.395 90.619 701.377 90.619Z" fill="#C8AC4C"/>
</svg>
