<?xml version="1.0" standalone="no"?>
<!DOCTYPE svg PUBLIC "-//W3C//DTD SVG 20010904//EN"
 "http://www.w3.org/TR/2001/REC-SVG-20010904/DTD/svg10.dtd">
<svg version="1.0" xmlns="http://www.w3.org/2000/svg"
 width="564.000000pt" height="564.000000pt" viewBox="0 0 564.000000 564.000000"
 preserveAspectRatio="xMidYMid meet">

<g transform="translate(0.000000,564.000000) scale(0.100000,-0.100000)"
fill="#000000" stroke="none">
<path d="M0 2820 l0 -2820 2820 0 2820 0 0 2820 0 2820 -2820 0 -2820 0 0
-2820z m851 2620 c188 -36 339 -191 370 -379 49 -298 -219 -568 -519 -521
-249 40 -423 276 -382 521 43 254 284 426 531 379z m1050 0 c188 -35 341 -193
370 -384 46 -297 -226 -566 -521 -516 -198 33 -349 185 -382 384 -30 178 71
379 231 465 105 55 195 71 302 51z m1104 -21 c76 -28 170 -102 217 -169 58
-83 81 -171 76 -284 -3 -84 -8 -102 -42 -170 -142 -288 -510 -350 -735 -125
-152 152 -173 393 -52 576 115 171 343 244 536 172z m951 20 c125 -23 257
-118 318 -228 123 -226 32 -514 -198 -626 -310 -151 -658 62 -658 405 0 181
93 330 256 410 96 47 176 58 282 39z m1035 1 c238 -44 408 -280 370 -514 -40
-251 -273 -424 -518 -386 -199 31 -351 183 -384 386 -49 300 230 570 532 514z
m-4129 -1051 c90 -19 173 -66 237 -134 139 -149 167 -334 79 -515 -126 -258
-463 -334 -691 -154 -128 100 -196 275 -168 429 46 255 294 426 543 374z
m1050 0 c179 -38 326 -190 359 -374 28 -154 -40 -329 -168 -429 -263 -208
-643 -77 -728 251 -19 73 -19 133 0 208 25 95 54 145 124 216 117 117 258 160
413 128z m1041 -4 c224 -58 356 -240 345 -473 -4 -79 -9 -99 -42 -166 -115
-234 -379 -325 -611 -211 -171 83 -264 244 -253 436 5 75 11 100 42 164 94
198 313 304 519 250z m1080 -15 c116 -44 224 -152 267 -267 102 -273 -78 -573
-368 -613 -245 -34 -477 141 -512 387 -32 230 117 450 345 510 70 18 197 10
268 -17z m969 19 c233 -49 396 -282 359 -513 -60 -372 -508 -520 -774 -255
-102 103 -151 250 -129 386 43 261 292 435 544 382z m-4099 -1049 c271 -84
401 -384 277 -637 -45 -91 -121 -165 -217 -210 -69 -33 -88 -38 -173 -41 -78
-3 -106 0 -159 18 -248 83 -375 340 -291 586 78 226 333 355 563 284z m1032 6
c228 -61 376 -289 335 -516 -27 -151 -120 -272 -259 -339 -74 -35 -79 -36
-191 -36 -112 0 -117 1 -193 37 -235 113 -331 387 -216 618 54 106 173 204
288 236 61 16 174 17 236 0z m1075 -14 c111 -44 219 -151 260 -259 28 -72 37
-195 20 -272 -45 -204 -230 -351 -444 -351 -121 0 -224 39 -307 117 -163 153
-197 386 -83 575 60 99 170 180 281 208 64 16 211 6 273 -18z m1054 -15 c281
-133 352 -486 147 -719 -91 -103 -217 -153 -366 -146 -82 3 -101 8 -166 40
-112 56 -199 148 -235 250 -59 168 -22 347 98 474 100 106 200 146 350 141 86
-3 104 -8 172 -40z m977 23 c219 -67 356 -283 320 -503 -26 -155 -117 -278
-258 -345 -76 -36 -81 -37 -193 -37 -111 0 -117 1 -191 36 -188 90 -294 287
-261 482 48 276 322 448 583 367z m-4077 -1073 c138 -66 230 -186 257 -338 33
-187 -66 -386 -236 -475 -83 -44 -152 -58 -250 -51 -262 16 -460 266 -416 523
26 149 120 274 253 338 91 43 101 45 220 42 87 -3 103 -6 172 -39z m965 32
c223 -51 379 -285 342 -512 -37 -225 -226 -387 -451 -387 -337 0 -559 354
-411 655 54 110 153 194 276 237 56 20 176 23 244 7z m1103 -27 c118 -54 207
-154 249 -280 31 -95 24 -231 -18 -322 -131 -287 -498 -361 -729 -148 -217
200 -184 558 67 719 83 53 150 70 264 66 86 -3 109 -8 167 -35z m1010 8 c71
-28 161 -100 204 -163 127 -185 104 -431 -55 -587 -224 -218 -590 -155 -726
125 -64 130 -65 263 -5 393 53 113 182 223 296 251 68 17 222 7 286 -19z
m1064 -14 c141 -70 230 -190 255 -344 28 -169 -50 -346 -194 -443 -138 -91
-306 -104 -451 -35 -141 68 -231 189 -257 343 -31 186 67 380 237 470 84 45
123 53 236 49 90 -3 104 -6 174 -40z m-4211 -998 c210 -53 363 -288 327 -504
-42 -252 -280 -428 -523 -386 -247 43 -420 280 -379 521 34 203 190 354 395
384 38 6 129 -2 180 -15z m1060 -3 c111 -31 222 -128 275 -238 132 -275 -39
-597 -343 -650 -83 -14 -180 1 -264 40 -76 36 -181 139 -216 215 -83 176 -47
380 92 519 122 121 285 162 456 114z m1043 -6 c113 -37 199 -117 260 -238 33
-66 37 -83 40 -170 3 -79 0 -107 -18 -160 -110 -327 -511 -425 -756 -186 -144
141 -175 365 -77 547 55 101 195 203 314 228 61 12 162 3 237 -21z m963 17
c284 -61 440 -351 333 -622 -35 -87 -139 -196 -226 -237 -278 -131 -604 45
-647 348 -39 271 165 508 449 523 14 1 55 -5 91 -12z m1084 -11 c206 -58 350
-286 316 -501 -38 -249 -273 -424 -517 -386 -98 15 -171 51 -244 119 -71 65
-125 165 -141 262 -24 136 27 290 130 391 126 123 285 163 456 115z"/>
<path d="M1055 5270 c21 -22 41 -40 44 -40 3 0 -13 18 -34 40 -21 22 -41 40
-44 40 -3 0 13 -18 34 -40z"/>
<path d="M1123 5175 c31 -64 49 -161 41 -215 -4 -23 -10 -37 -13 -31 -4 5 -31
-24 -61 -66 -100 -138 -207 -197 -360 -198 -47 0 -88 -4 -92 -9 -3 -5 -18 -10
-33 -11 -24 -1 -25 0 -8 13 16 13 15 13 -15 7 -42 -9 -68 9 -50 34 10 13 10
14 -2 4 -18 -16 -34 -17 -24 -1 5 7 3 8 -5 4 -8 -6 -11 -2 -9 10 2 11 -2 18
-9 17 -16 -3 -69 74 -90 129 -10 27 -16 76 -16 128 -1 69 4 97 25 147 14 35
22 60 17 58 -13 -9 -46 -107 -54 -161 -16 -119 38 -258 135 -347 70 -65 144
-97 241 -104 287 -22 505 250 420 523 -11 38 -30 80 -41 94 -18 22 -17 19 3
-25z m-76 -441 c6 -18 -39 -63 -66 -66 -36 -4 -37 18 -2 53 30 30 61 35 68 13z"/>
<path d="M618 5183 c-6 -16 -12 -92 -12 -178 -1 -130 1 -155 17 -179 23 -34
39 -32 153 24 113 55 204 123 204 153 0 38 -84 104 -227 176 -80 40 -119 41
-135 4z"/>
<path d="M1990 5356 c0 -3 9 -10 20 -16 11 -6 20 -8 20 -6 0 3 -9 10 -20 16
-11 6 -20 8 -20 6z"/>
<path d="M2105 5270 c21 -22 41 -40 44 -40 3 0 -13 18 -34 40 -21 22 -41 40
-44 40 -3 0 13 -18 34 -40z"/>
<path d="M2173 5175 c44 -91 59 -266 21 -251 -7 3 -16 -4 -19 -15 -4 -10 -10
-19 -14 -19 -5 0 -20 -18 -35 -40 -84 -128 -225 -196 -385 -188 -38 2 -67 -1
-64 -5 5 -8 -53 -1 -86 9 -11 4 -11 7 0 22 12 15 12 16 -2 5 -13 -11 -21 -9
-42 10 -28 23 -37 44 -14 31 7 -4 9 -3 4 2 -5 5 -14 9 -20 9 -7 1 -11 7 -9 14
1 7 -2 10 -7 7 -18 -12 -70 117 -80 200 l-10 79 4 -79 c7 -112 47 -197 131
-275 269 -252 713 -38 681 328 -7 76 -29 145 -58 181 -17 21 -17 18 4 -25z
m-80 -431 c20 -21 -57 -95 -82 -80 -18 11 -13 26 18 57 28 28 51 36 64 23z"/>
<path d="M1792 5188 c-6 -6 -12 -21 -12 -32 0 -17 -2 -18 -10 -6 -8 13 -14 12
-46 -5 -83 -45 -118 -160 -74 -250 58 -121 212 -149 308 -56 85 82 80 208 -12
289 -41 35 -61 40 -70 16 -10 -26 -7 -32 28 -65 44 -40 60 -79 51 -125 -19
-105 -161 -144 -229 -63 -50 59 -46 128 8 181 18 18 36 40 39 48 3 8 6 -24 6
-71 1 -94 11 -113 53 -107 23 3 23 5 23 128 l0 125 -25 3 c-14 2 -31 -3 -38
-10z"/>
<path d="M1432 5111 c-7 -21 -12 -45 -11 -52 0 -8 7 8 15 35 9 26 13 50 11 52
-2 2 -9 -13 -15 -35z"/>
<path d="M3130 5276 c0 -2 8 -10 18 -17 15 -13 16 -12 3 4 -13 16 -21 21 -21
13z"/>
<path d="M2487 5178 c-82 -166 -53 -355 74 -479 241 -234 632 -104 691 231 12
69 0 149 -32 226 -27 61 -32 55 -8 -8 24 -62 37 -208 19 -208 -6 0 -11 -7 -11
-15 0 -8 -4 -15 -9 -15 -6 0 -34 -31 -63 -70 -29 -38 -58 -69 -64 -70 -7 0
-14 -6 -17 -13 -8 -21 -117 -74 -177 -86 -67 -13 -190 -20 -184 -10 2 4 -15 6
-39 4 -39 -4 -47 0 -90 38 -44 40 -67 76 -29 46 15 -13 16 -12 3 3 -7 10 -17
15 -22 13 -10 -7 -48 63 -66 120 -27 85 -9 225 39 303 11 18 18 35 16 38 -3 2
-16 -20 -31 -48z m633 -446 c0 -22 -37 -59 -65 -64 -30 -5 -30 27 2 56 33 30
63 34 63 8z"/>
<path d="M2642 5194 c-40 -27 -18 -104 29 -104 29 0 59 31 59 60 0 28 -30 60
-55 60 -6 0 -21 -7 -33 -16z"/>
<path d="M2789 5179 c-8 -16 -8 -28 0 -45 10 -23 13 -24 141 -24 l130 0 12 26
c9 18 9 30 1 42 -8 14 -32 17 -141 20 -125 2 -131 2 -143 -19z"/>
<path d="M2650 5057 c-49 -25 -30 -107 25 -107 51 0 74 75 33 104 -27 19 -26
19 -58 3z"/>
<path d="M2789 5039 c-8 -16 -8 -28 0 -45 10 -23 14 -24 139 -24 134 0 152 5
152 45 0 40 -18 45 -152 45 -120 0 -128 -1 -139 -21z"/>
<path d="M2637 4892 c-24 -26 -21 -68 5 -86 30 -21 44 -20 68 4 27 27 26 65
-2 84 -29 21 -51 20 -71 -2z"/>
<path d="M2788 4875 c-9 -21 -8 -28 7 -45 16 -18 31 -20 136 -20 123 0 149 8
149 49 0 35 -20 41 -152 41 -127 0 -129 0 -140 -25z"/>
<path d="M4070 5336 c0 -2 7 -7 16 -10 8 -3 12 -2 9 4 -6 10 -25 14 -25 6z"/>
<path d="M3574 5268 l-19 -23 23 19 c21 18 27 26 19 26 -2 0 -12 -10 -23 -22z"/>
<path d="M4179 5246 c65 -77 97 -183 85 -286 -5 -45 -9 -58 -13 -42 -6 23 -8
22 -39 -21 -17 -25 -32 -48 -32 -52 0 -13 -45 -56 -104 -101 -80 -60 -170 -87
-275 -83 -44 2 -77 1 -75 -2 4 -8 -38 -20 -45 -14 -2 3 1 5 8 5 7 0 9 5 5 11
-4 8 -9 7 -15 -2 -6 -10 -17 -6 -46 18 -21 17 -37 38 -37 47 1 9 -2 13 -8 10
-5 -3 -16 0 -24 7 -19 15 -68 113 -78 152 -10 43 -8 167 3 206 6 19 9 37 6 39
-5 6 -22 -64 -29 -119 -6 -56 15 -162 42 -215 87 -169 287 -259 467 -210 120
32 214 110 268 224 30 62 32 75 32 172 0 98 -2 110 -32 170 -17 36 -46 79 -64
95 l-33 30 33 -39z m-34 -506 c16 -26 -50 -85 -81 -73 -18 7 -5 41 24 63 27
22 47 25 57 10z"/>
<path d="M3521 5193 c-10 -26 -10 -27 4 -9 8 11 15 23 15 28 0 15 -7 8 -19
-19z"/>
<path d="M3702 5198 c-17 -17 -17 -369 0 -386 7 -7 33 -12 59 -12 77 0 79 5
79 201 0 98 -4 179 -10 190 -9 15 -22 19 -63 19 -29 0 -58 -5 -65 -12z"/>
<path d="M3922 5198 c-17 -17 -17 -369 0 -386 7 -7 33 -12 59 -12 77 0 79 5
79 201 0 98 -4 179 -10 190 -9 15 -22 19 -63 19 -29 0 -58 -5 -65 -12z"/>
<path d="M4634 5288 l-19 -23 23 19 c21 18 27 26 19 26 -2 0 -12 -10 -23 -22z"/>
<path d="M5195 5270 c21 -22 41 -40 44 -40 3 0 -13 18 -34 40 -21 22 -41 40
-44 40 -3 0 13 -18 34 -40z"/>
<path d="M4557 5191 c-9 -16 -17 -33 -17 -38 0 -4 9 7 21 26 11 18 18 35 17
37 -2 2 -12 -10 -21 -25z"/>
<path d="M5264 5174 c42 -81 56 -241 23 -261 -6 -4 -7 -1 -2 8 4 8 -9 -3 -29
-25 -20 -21 -36 -42 -36 -45 0 -14 -106 -114 -145 -136 -22 -13 -67 -30 -100
-38 -61 -16 -206 -27 -200 -17 2 4 -11 6 -30 6 -27 -1 -31 -3 -22 -15 28 -34
-53 21 -97 65 -99 101 -130 219 -100 384 4 24 4 24 -5 3 -21 -46 -24 -137 -7
-203 23 -89 61 -153 128 -215 134 -124 336 -139 496 -35 68 43 112 95 150 177
24 51 27 69 26 158 0 104 -25 197 -60 226 -8 7 -4 -8 10 -37z m-79 -434 c10
-16 -13 -49 -46 -66 -51 -26 -64 12 -17 51 31 26 53 32 63 15z"/>
<path d="M4833 5190 c-37 -22 -53 -48 -53 -84 0 -59 82 -53 98 6 9 35 34 45
40 15 2 -9 -8 -38 -22 -63 -29 -51 -32 -74 -14 -92 20 -20 39 -14 78 26 20 20
48 45 63 55 29 19 36 61 17 97 -30 56 -144 79 -207 40z"/>
<path d="M4854 4894 c-35 -53 21 -113 80 -86 58 26 36 112 -29 112 -26 0 -39
-6 -51 -26z"/>
<path d="M997 4269 c7 -7 15 -10 18 -7 3 3 -2 9 -12 12 -14 6 -15 5 -6 -5z"/>
<path d="M499 4243 l-24 -28 28 24 c25 23 32 31 24 31 -2 0 -14 -12 -28 -27z"/>
<path d="M1073 4203 c46 -53 73 -113 87 -196 8 -44 8 -71 1 -91 -6 -15 -9 -32
-6 -37 4 -5 -1 -6 -9 -3 -11 4 -16 0 -16 -10 0 -9 -3 -16 -8 -16 -4 0 -28 -27
-52 -59 -91 -120 -213 -179 -377 -182 -48 -1 -94 -6 -102 -13 -12 -9 -13 -8
-6 3 6 11 4 13 -7 9 -17 -7 -43 6 -43 22 0 5 -3 9 -6 8 -12 -5 -49 34 -42 45
3 5 1 7 -4 4 -11 -7 -28 9 -50 47 -32 57 -46 98 -58 171 -7 44 -13 66 -14 49
-2 -55 18 -137 49 -200 38 -77 110 -146 198 -187 61 -29 75 -32 162 -31 72 0
108 5 148 21 164 66 270 230 259 403 -6 99 -39 180 -96 240 -45 46 -45 46 -8
3z m-26 -520 c4 -10 -50 -73 -62 -73 -38 0 -37 39 3 71 27 21 53 22 59 2z"/>
<path d="M410 4129 c-12 -23 -20 -43 -18 -45 3 -2 14 17 26 41 27 56 20 60 -8
4z"/>
<path d="M734 4152 c-6 -4 -14 -17 -18 -28 -6 -20 -10 -21 -36 -11 -27 10 -33
9 -57 -15 -24 -24 -25 -30 -14 -54 12 -28 3 -43 -26 -44 -16 0 -27 -42 -18
-70 4 -12 17 -26 30 -32 20 -9 22 -14 15 -34 -12 -30 -5 -49 26 -69 19 -12 29
-13 46 -4 17 9 23 9 26 -1 8 -24 42 -50 67 -50 22 0 31 9 61 58 1 1 13 -3 28
-9 24 -11 30 -10 54 14 23 24 25 30 16 55 -10 26 -8 30 18 45 22 13 28 23 28
52 0 28 -5 38 -25 47 -21 10 -24 16 -19 42 4 25 0 36 -21 56 -22 21 -29 23
-55 13 -27 -10 -29 -9 -39 18 -8 24 -15 29 -43 29 -18 0 -38 -4 -44 -8z m97
-141 c46 -46 34 -112 -25 -136 -79 -33 -147 48 -106 125 25 46 90 52 131 11z"/>
<path d="M376 4048 c-3 -13 -5 -32 -5 -43 1 -11 5 -2 10 19 10 42 6 62 -5 24z"/>
<path d="M2030 4286 c0 -2 8 -10 18 -17 15 -13 16 -12 3 4 -13 16 -21 21 -21
13z"/>
<path d="M1559 4253 c-13 -16 -12 -17 4 -4 16 13 21 21 13 21 -2 0 -10 -8 -17
-17z"/>
<path d="M2109 4217 c78 -88 121 -218 102 -314 -5 -26 -9 -40 -10 -30 -2 28
-21 9 -21 -21 0 -18 -3 -23 -9 -14 -5 9 -15 2 -33 -25 -89 -133 -245 -212
-396 -201 -41 3 -59 1 -55 -6 3 -6 3 -8 -2 -4 -4 4 -16 3 -26 -2 -21 -12 -84
21 -84 42 0 7 -8 12 -18 10 -9 -2 -18 2 -18 8 -1 5 -2 16 -3 23 0 6 -7 12 -15
12 -23 0 -77 99 -91 165 -7 34 -10 87 -7 122 3 40 2 52 -3 33 -42 -158 63
-367 225 -445 106 -51 249 -50 359 4 59 29 136 102 171 161 30 50 55 145 55
205 0 100 -51 219 -123 286 l-41 39 43 -48z m-16 -523 c19 -19 -52 -87 -80
-77 -20 7 -15 24 14 55 25 26 52 35 66 22z"/>
<path d="M1800 4151 c-44 -14 -88 -40 -104 -62 -12 -18 -20 -20 -55 -14 -54 9
-60 -6 -36 -102 20 -80 47 -133 68 -133 14 0 114 97 143 138 20 29 12 50 -21
58 -32 8 -32 18 0 32 61 28 143 5 170 -48 37 -71 2 -146 -79 -172 -51 -16 -88
-71 -64 -94 21 -21 87 -8 144 27 49 32 94 109 94 163 0 135 -137 244 -260 207z"/>
<path d="M1446 4105 c-9 -26 -7 -32 5 -12 6 10 9 21 6 23 -2 3 -7 -2 -11 -11z"/>
<path d="M1635 3610 c-8 -13 5 -13 25 0 13 8 13 10 -2 10 -9 0 -20 -4 -23 -10z"/>
<path d="M3070 4276 c0 -2 8 -10 18 -17 15 -13 16 -12 3 4 -13 16 -21 21 -21
13z"/>
<path d="M3110 4247 c0 -2 15 -16 33 -33 l32 -29 -29 33 c-28 30 -36 37 -36
29z"/>
<path d="M2485 4129 c-9 -17 -15 -33 -13 -35 3 -2 12 12 21 31 21 43 13 47 -8
4z"/>
<path d="M2905 4148 c-11 -6 -41 -28 -66 -50 -38 -31 -55 -38 -89 -38 -23 0
-50 -4 -60 -10 -45 -24 -50 -150 -8 -192 16 -16 29 -19 58 -15 42 5 53 0 133
-66 57 -47 69 -42 77 36 4 44 8 52 27 55 30 4 63 48 63 82 0 34 -33 78 -63 82
-19 3 -23 10 -27 62 -5 63 -13 72 -45 54z"/>
<path d="M3212 4103 c26 -58 38 -216 18 -228 -9 -6 -11 -4 -5 5 5 9 4 11 -3 6
-7 -4 -12 -11 -12 -17 0 -10 -51 -69 -122 -141 -88 -89 -192 -123 -351 -115
-62 3 -95 2 -86 -4 12 -7 12 -9 -1 -9 -21 0 -113 88 -143 136 -42 69 -60 147
-55 239 3 44 2 69 -2 55 -5 -14 -8 -54 -9 -88 -4 -259 245 -460 497 -402 110
26 224 115 275 217 32 61 50 169 41 232 -8 52 -41 148 -54 156 -5 3 0 -16 12
-42z m-92 -422 c0 -22 -57 -74 -74 -68 -21 7 -17 37 8 62 30 30 66 34 66 6z
m-405 -81 c3 -6 -1 -7 -9 -4 -18 7 -21 14 -7 14 6 0 13 -4 16 -10z"/>
<path d="M3584 4228 l-29 -33 33 29 c17 17 32 31 32 33 0 8 -8 1 -36 -29z"/>
<path d="M4195 4175 c47 -63 53 -69 29 -27 -10 18 -30 43 -43 55 -14 13 -8 1
14 -28z"/>
<path d="M3526 4153 c-6 -14 -5 -15 5 -6 7 7 10 15 7 18 -3 3 -9 -2 -12 -12z"/>
<path d="M3677 4151 c-6 -25 10 -41 44 -41 27 0 28 -3 55 -116 20 -85 32 -118
45 -122 10 -4 60 -6 113 -4 l95 3 21 94 c12 52 19 99 15 105 -4 6 -56 10 -129
10 l-122 0 -10 43 -9 42 -56 3 c-49 3 -57 0 -62 -17z m323 -137 c0 -8 -5 -35
-11 -60 l-11 -44 -63 0 -63 0 -11 50 c-6 28 -11 55 -11 60 0 6 38 10 85 10 70
0 85 -3 85 -16z"/>
<path d="M3491 4079 c-6 -18 -9 -34 -7 -36 2 -2 9 10 15 28 6 18 9 34 7 36 -2
2 -9 -10 -15 -28z"/>
<path d="M4245 4090 c2 -14 9 -49 16 -79 16 -77 2 -152 -26 -138 -10 4 -41
-64 -44 -96 -1 -4 -7 -7 -13 -6 -7 2 -32 -16 -55 -39 -85 -82 -182 -120 -318
-123 -41 -1 -72 -6 -69 -10 3 -5 -2 -6 -10 -3 -19 7 -21 24 -4 24 6 0 8 3 5 6
-4 4 -14 1 -23 -7 -14 -12 -14 -14 2 -26 10 -7 14 -13 8 -13 -5 0 -17 6 -26
14 -14 10 -15 15 -5 26 10 11 9 11 -6 0 -16 -12 -20 -12 -28 1 -5 8 -9 11 -9
7 0 -3 -16 8 -35 24 -19 17 -32 36 -28 41 3 6 2 8 -3 5 -8 -5 -43 23 -36 29 1
2 -4 13 -12 26 -23 34 -46 106 -46 141 0 17 -5 38 -10 46 -12 17 -5 -49 12
-115 51 -204 285 -337 493 -280 75 20 167 75 209 126 16 19 43 63 60 99 29 60
31 73 31 170 0 79 -5 114 -18 140 -13 27 -16 30 -12 10z m-98 -406 c5 -16 -38
-62 -62 -66 -32 -5 -31 36 1 61 29 23 55 24 61 5z"/>
<path d="M3472 4000 c0 -19 2 -27 5 -17 2 9 2 25 0 35 -3 9 -5 1 -5 -18z"/>
<path d="M3802 3843 c-22 -9 -34 -41 -23 -62 15 -28 49 -33 72 -10 24 24 24
34 -1 59 -21 21 -26 22 -48 13z"/>
<path d="M3978 3839 c-27 -15 -24 -68 5 -78 49 -19 87 38 47 71 -25 21 -29 21
-52 7z"/>
<path d="M5157 4256 c17 -15 48 -45 69 -69 20 -23 31 -33 23 -22 -22 34 -83
96 -104 107 -11 5 -6 -2 12 -16z"/>
<path d="M4649 4253 c-13 -16 -12 -17 4 -4 16 13 21 21 13 21 -2 0 -10 -8 -17
-17z"/>
<path d="M4560 4150 c-6 -11 -8 -20 -6 -20 3 0 10 9 16 20 6 11 8 20 6 20 -3
0 -10 -9 -16 -20z"/>
<path d="M4859 4137 c-40 -27 -59 -60 -59 -105 0 -22 -7 -40 -21 -51 -26 -21
-38 -125 -19 -170 31 -76 227 -94 290 -26 42 45 37 180 -8 200 -18 8 -22 18
-22 55 0 52 -18 83 -60 105 -40 21 -61 19 -101 -8z m105 -49 c9 -12 16 -39 16
-60 l0 -38 -65 0 -65 0 0 42 c0 52 22 78 66 78 23 0 38 -7 48 -22z m-20 -160
c7 -12 7 -23 -3 -40 -9 -17 -9 -31 -2 -51 10 -26 9 -27 -24 -27 -39 0 -39 -1
-25 35 8 20 6 32 -4 47 -11 16 -12 26 -5 40 12 23 47 21 63 -4z"/>
<path d="M5266 4127 c3 -10 9 -15 12 -12 3 3 0 11 -7 18 -10 9 -11 8 -5 -6z"/>
<path d="M4525 4071 c-9 -28 -14 -59 -12 -68 4 -15 5 -14 6 3 0 12 8 41 16 64
8 24 13 45 11 47 -2 2 -12 -18 -21 -46z"/>
<path d="M5285 4085 c18 -77 24 -136 18 -179 -3 -28 -8 -45 -11 -38 -3 9 -16
1 -38 -23 -36 -40 -40 -50 -24 -58 6 -3 5 -4 -2 -3 -7 2 -29 -14 -49 -34 -90
-92 -168 -127 -315 -139 -104 -9 -146 -5 -122 11 12 9 -15 4 -48 -9 -6 -2 -32
18 -58 45 -44 45 -55 61 -94 136 -8 16 -20 65 -27 110 -8 51 -13 67 -14 44 -3
-106 52 -231 135 -307 272 -249 706 -43 681 324 -2 39 -12 86 -21 105 -8 19
-14 26 -11 15z m-100 -395 c15 -24 -52 -83 -82 -73 -19 7 -16 18 13 52 25 31
57 40 69 21z m-439 -96 c19 -15 19 -15 -1 -6 -11 5 -27 12 -35 15 -13 5 -13 6
1 6 8 1 24 -6 35 -15z"/>
<path d="M1099 3131 c17 -25 39 -70 48 -100 20 -69 22 -176 3 -194 -10 -10
-11 -9 -5 2 21 36 -19 -6 -54 -57 -51 -76 -120 -138 -186 -168 -65 -30 -164
-48 -222 -40 -27 3 -43 2 -43 -5 0 -6 -4 -7 -10 -4 -5 3 -19 1 -31 -5 -19 -11
-20 -10 -9 10 10 19 10 20 -7 12 -27 -14 -55 1 -102 55 -60 67 -92 135 -107
228 l-14 80 6 -68 c22 -294 317 -467 584 -344 25 12 75 50 111 86 90 90 113
149 114 286 0 92 -3 105 -32 166 -18 36 -42 74 -54 85 -15 13 -12 5 10 -25z
m-53 -482 c8 -14 -45 -69 -67 -69 -30 0 -30 17 -3 49 26 31 57 40 70 20z"/>
<path d="M397 3065 c-9 -20 -17 -41 -17 -48 0 -7 9 8 20 32 24 52 21 66 -3 16z"/>
<path d="M724 3029 c-66 -35 -164 -107 -171 -126 -9 -23 37 -72 115 -123 42
-28 87 -53 100 -56 31 -9 52 12 52 52 l0 34 63 0 c36 0 68 5 75 12 13 13 16
106 4 125 -4 7 -36 13 -72 15 l-65 3 -5 35 c-7 39 -17 60 -29 60 -5 0 -35 -14
-67 -31z"/>
<path d="M372 2975 c0 -16 2 -22 5 -12 2 9 2 23 0 30 -3 6 -5 -1 -5 -18z"/>
<path d="M1990 3266 c0 -2 7 -7 16 -10 8 -3 12 -2 9 4 -6 10 -25 14 -25 6z"/>
<path d="M2115 3170 c27 -30 51 -57 53 -60 3 -3 0 4 -6 15 -6 11 -30 38 -53
60 -43 39 -43 39 6 -15z"/>
<path d="M1447 3065 c-9 -20 -17 -41 -17 -48 0 -7 9 8 20 32 24 52 21 66 -3
16z"/>
<path d="M2186 3058 c36 -101 41 -237 8 -224 -7 3 -16 -4 -19 -15 -4 -10 -11
-16 -17 -13 -7 5 -9 -3 -5 -22 3 -16 4 -23 1 -16 -4 8 -27 -11 -66 -52 -93
-102 -237 -158 -362 -141 -39 5 -52 2 -69 -12 -11 -10 -17 -12 -13 -5 5 9 3
12 -5 11 -22 -4 -60 11 -53 22 3 5 0 8 -7 7 -7 -2 -13 2 -14 7 -1 17 -16 36
-25 30 -18 -11 -92 111 -110 182 l-10 38 6 -44 c11 -99 106 -221 211 -275 278
-141 617 85 590 394 -6 66 -32 156 -48 165 -4 3 -2 -13 7 -37z m-93 -404 c8
-8 -11 -45 -32 -61 -22 -17 -61 -16 -61 2 0 32 73 79 93 59z"/>
<path d="M1770 3034 c-6 -14 -10 -34 -10 -45 0 -11 -7 -19 -17 -20 -10 -1 -36
-2 -58 -4 -22 -1 -46 -3 -52 -3 -9 -2 -13 -23 -13 -71 0 -79 2 -81 85 -81 l52
0 7 -40 c4 -24 13 -43 23 -47 31 -12 225 110 238 150 4 10 -1 29 -10 43 -20
31 -192 144 -217 144 -11 0 -23 -11 -28 -26z"/>
<path d="M1422 2980 c0 -14 2 -19 5 -12 2 6 2 18 0 25 -3 6 -5 1 -5 -13z"/>
<path d="M1413 2905 c0 -27 2 -38 4 -22 2 15 2 37 0 50 -2 12 -4 0 -4 -28z"/>
<path d="M2569 3203 c-13 -16 -12 -17 4 -4 16 13 21 21 13 21 -2 0 -10 -8 -17
-17z"/>
<path d="M3144 3171 c59 -68 87 -139 94 -237 3 -59 1 -84 -7 -84 -6 0 -10 -6
-8 -12 1 -8 -6 -12 -17 -10 -11 2 -17 -1 -14 -10 3 -7 -2 -19 -11 -25 -14 -11
-14 -14 -1 -23 12 -8 11 -10 -6 -10 -13 0 -32 -14 -47 -34 -36 -46 -110 -98
-182 -127 -51 -20 -77 -24 -177 -24 -65 0 -118 -3 -118 -8 0 -4 -9 -3 -20 3
-12 6 -17 17 -14 28 4 11 3 13 -3 5 -14 -20 -92 64 -127 137 -28 59 -31 74
-31 165 0 81 5 109 22 148 12 26 20 47 17 47 -3 0 -15 -21 -27 -47 -17 -39
-21 -67 -21 -148 0 -127 23 -191 99 -274 164 -177 423 -184 591 -17 92 93 137
230 115 352 -15 78 -61 171 -107 214 l-38 35 38 -44z m-24 -528 c0 -25 -40
-63 -67 -63 -30 0 -30 24 2 55 28 29 65 33 65 8z"/>
<path d="M2506 3123 c-6 -14 -5 -15 5 -6 7 7 10 15 7 18 -3 3 -9 -2 -12 -12z"/>
<path d="M2801 3081 c-43 -43 -121 -168 -121 -194 0 -20 30 -37 64 -37 25 0
26 -2 26 -63 0 -36 5 -68 12 -75 13 -13 106 -16 125 -4 7 4 13 36 15 72 l3 65
38 6 c63 10 66 21 30 92 -41 77 -118 177 -138 177 -8 0 -33 -18 -54 -39z"/>
<path d="M4100 3236 c0 -2 8 -10 18 -17 15 -13 16 -12 3 4 -13 16 -21 21 -21
13z"/>
<path d="M3609 3213 c-13 -16 -12 -17 4 -4 16 13 21 21 13 21 -2 0 -10 -8 -17
-17z"/>
<path d="M4215 3110 c9 -16 18 -30 21 -30 2 0 -2 14 -11 30 -9 17 -18 30 -21
30 -2 0 2 -13 11 -30z"/>
<path d="M3799 3108 c0 -7 0 -38 1 -69 l1 -56 -39 -7 c-59 -9 -68 -26 -41 -78
31 -62 106 -166 129 -178 34 -18 48 -11 95 53 58 76 100 159 92 181 -4 9 -23
18 -46 22 l-40 6 -3 67 -3 66 -72 3 c-54 2 -73 0 -74 -10z"/>
<path d="M3499 3065 c-11 -25 -19 -50 -17 -55 2 -4 13 16 24 46 26 66 21 72
-7 9z"/>
<path d="M4241 3068 c-1 -4 6 -33 14 -65 8 -31 15 -71 15 -88 -1 -36 -39 -122
-40 -90 -1 15 -5 12 -18 -13 -14 -29 -14 -34 -2 -42 12 -8 11 -10 -5 -11 -11
-1 -23 -1 -27 0 -5 0 -8 -3 -8 -8 0 -11 -62 -74 -106 -107 -54 -42 -140 -66
-236 -68 -47 0 -81 -4 -75 -8 18 -12 3 -9 -42 7 -43 15 -58 11 -18 -5 21 -9
21 -9 1 -9 -12 -1 -44 18 -73 41 -40 32 -50 46 -45 62 4 16 3 17 -4 7 -8 -11
-16 -4 -37 29 -42 66 -55 115 -56 209 -1 75 -2 80 -9 41 -20 -109 32 -254 121
-341 200 -195 526 -136 651 118 31 64 33 74 33 173 0 76 -5 115 -17 140 -9 19
-17 32 -17 28z m16 -250 c-3 -8 -6 -5 -6 6 -1 11 2 17 5 13 3 -3 4 -12 1 -19z
m-107 -172 c0 -20 -50 -66 -71 -66 -26 0 -24 28 3 57 23 25 68 31 68 9z"/>
<path d="M5150 3226 c0 -2 8 -10 18 -17 15 -13 16 -12 3 4 -13 16 -21 21 -21
13z"/>
<path d="M5224 3151 c41 -51 56 -86 72 -162 17 -83 10 -149 -17 -156 -11 -3
-19 -12 -19 -19 0 -8 -4 -14 -10 -14 -5 0 -10 -7 -10 -15 0 -8 5 -15 11 -15 5
0 7 -5 3 -11 -5 -8 -8 -8 -14 0 -4 8 -30 -11 -72 -53 -35 -35 -83 -73 -106
-85 -59 -30 -160 -51 -234 -49 -34 1 -77 -1 -93 -5 -27 -7 -37 -2 -78 34 -25
23 -44 46 -40 52 4 6 1 7 -7 2 -10 -6 -12 -4 -7 8 4 10 2 14 -6 11 -19 -7 -75
123 -82 191 -3 33 -1 82 5 109 6 27 9 51 6 53 -2 3 -10 -22 -16 -54 -26 -122
19 -264 114 -359 167 -166 427 -160 589 16 76 82 100 147 101 270 0 112 -23
184 -80 246 -28 31 -30 32 -10 5z m-39 -501 c8 -14 -15 -47 -42 -59 -55 -25
-70 -2 -28 43 24 26 59 34 70 16z"/>
<path d="M4560 3110 c-6 -11 -8 -20 -6 -20 3 0 10 9 16 20 6 11 8 20 6 20 -3
0 -10 -9 -16 -20z"/>
<path d="M4880 3102 c0 -11 -14 -25 -35 -35 -63 -30 -85 -96 -50 -150 9 -14
43 -36 75 -51 61 -26 76 -49 40 -61 -30 -9 -54 1 -89 41 -34 37 -51 37 -51 1
1 -59 36 -97 90 -97 13 0 20 -7 20 -19 0 -19 25 -31 48 -24 6 3 12 13 12 23 0
11 10 19 29 23 46 10 91 62 91 106 0 45 -25 72 -90 97 -53 20 -75 38 -66 53
12 18 47 12 82 -14 39 -30 50 -31 62 -7 19 37 -16 82 -65 82 -27 0 -35 5 -43
25 -12 31 -60 36 -60 7z"/>
<path d="M4536 3065 c-9 -26 -7 -32 5 -12 6 10 9 21 6 23 -2 3 -7 -2 -11 -11z"/>
<path d="M1123 2041 c35 -71 49 -160 35 -218 -6 -24 -14 -43 -19 -43 -5 0 -9
-7 -9 -15 0 -8 -6 -12 -13 -10 -7 3 -21 -10 -32 -31 -27 -50 -115 -128 -179
-158 -60 -28 -191 -51 -236 -41 -16 3 -31 2 -35 -4 -3 -6 -11 -11 -16 -11 -6
0 -7 5 -4 10 3 6 2 10 -4 10 -5 0 -18 3 -28 7 -16 6 -16 4 2 -17 l20 -23 -35
18 c-122 61 -212 239 -196 389 l5 51 -11 -49 c-14 -62 2 -160 37 -231 77 -158
251 -253 415 -228 292 45 444 340 311 601 -11 22 -24 43 -29 46 -4 2 5 -21 21
-53z m-77 -442 c9 -16 -46 -69 -73 -69 -30 0 -29 21 3 54 28 27 58 34 70 15z"/>
<path d="M607 2049 c-20 -17 -37 -36 -37 -42 0 -7 25 -39 54 -73 l55 -61 -60
-52 c-32 -29 -59 -58 -59 -65 0 -8 18 -30 40 -50 47 -42 52 -41 120 28 24 25
47 46 50 46 3 0 25 -25 48 -55 26 -32 51 -55 62 -55 23 0 90 56 90 75 0 7 -23
39 -52 70 l-52 57 57 54 c31 30 57 60 57 67 0 20 -63 77 -85 77 -11 0 -40 -23
-64 -50 -24 -28 -48 -50 -55 -49 -6 0 -30 25 -54 55 -24 30 -51 54 -60 54 -10
0 -34 -14 -55 -31z"/>
<path d="M395 2013 c-9 -20 -14 -40 -13 -45 2 -5 11 11 20 37 20 54 15 61 -7
8z"/>
<path d="M2037 2189 c7 -7 15 -10 18 -7 3 3 -2 9 -12 12 -14 6 -15 5 -6 -5z"/>
<path d="M1468 2058 c-36 -56 -53 -123 -52 -208 1 -135 50 -237 154 -319 141
-112 352 -115 492 -8 112 86 164 193 162 337 -1 82 -29 190 -54 205 -5 3 -2
-11 7 -32 44 -104 51 -253 12 -253 -24 0 -25 -17 -1 -23 11 -3 6 -7 -16 -12
-21 -5 -38 -17 -47 -35 -25 -47 -124 -127 -191 -154 -52 -21 -84 -26 -168 -28
-73 -2 -102 -6 -95 -14 6 -7 1 -10 -14 -8 -12 1 -26 3 -30 3 -5 1 -5 5 -2 11
4 6 -1 7 -12 4 -16 -5 -16 -4 1 10 11 9 15 16 10 16 -6 0 -15 -5 -22 -12 -15
-15 -43 7 -35 30 4 13 2 14 -5 4 -13 -19 -67 45 -103 121 -50 107 -48 231 5
337 27 53 28 65 4 28z m622 -468 c0 -26 -38 -60 -67 -60 -31 0 -29 23 4 55 33
30 63 33 63 5z"/>
<path d="M1922 2029 c-41 -76 -106 -173 -118 -176 -5 -2 -32 30 -59 72 -27 41
-55 77 -61 79 -18 7 -94 -51 -94 -70 0 -9 23 -54 51 -100 112 -186 169 -206
258 -90 66 87 162 256 157 274 -7 21 -66 62 -89 62 -10 0 -28 -21 -45 -51z"/>
<path d="M2559 2143 l-24 -28 28 24 c25 23 32 31 24 31 -2 0 -14 -12 -28 -27z"/>
<path d="M3110 2157 c0 -2 15 -16 33 -33 l32 -29 -29 33 c-28 30 -36 37 -36
29z"/>
<path d="M2822 2063 c-6 -10 -13 -33 -17 -51 -11 -53 -27 -62 -99 -55 -54 5
-64 3 -70 -12 -8 -21 16 -50 56 -71 52 -27 54 -50 12 -111 -29 -43 -35 -58
-27 -71 17 -29 50 -25 105 12 29 20 59 36 66 36 8 0 38 -16 68 -36 39 -26 61
-34 78 -30 38 9 38 31 0 87 -44 63 -40 85 21 122 36 21 46 32 43 50 -3 20 -9
22 -63 22 -70 0 -81 5 -89 42 -14 61 -28 83 -52 83 -13 0 -27 -8 -32 -17z"/>
<path d="M3206 2027 c30 -68 49 -237 24 -222 -9 5 -11 4 -6 -4 4 -6 0 -14 -9
-17 -9 -4 -13 -13 -10 -23 3 -11 -4 -20 -23 -29 -15 -7 -42 -32 -60 -57 -66
-87 -182 -143 -304 -146 -94 -3 -185 6 -201 19 -6 6 -16 10 -21 10 -20 -1 -78
68 -107 128 -40 81 -50 197 -25 279 8 27 13 51 11 53 -2 2 -11 -22 -21 -54
-21 -74 -15 -188 16 -267 59 -154 254 -273 413 -252 276 37 440 297 346 551
-11 27 -26 59 -34 70 -8 10 -3 -7 11 -39z m-86 -436 c0 -23 -45 -61 -71 -61
-26 0 -24 26 6 55 30 30 65 33 65 6z m-459 -78 c13 -15 12 -15 -8 -4 -24 12
-29 21 -14 21 5 0 15 -7 22 -17z m52 5 c-6 -11 -31 -10 -37 1 -3 5 5 8 18 7
13 0 22 -4 19 -8z"/>
<path d="M4130 2167 c0 -2 15 -16 33 -33 l32 -29 -29 33 c-28 30 -36 37 -36
29z"/>
<path d="M4207 2075 c29 -42 53 -118 60 -192 6 -60 5 -63 -24 -91 -26 -23 -28
-28 -12 -29 10 -1 20 6 22 15 4 13 5 11 6 -4 1 -16 -7 -24 -26 -29 -14 -3 -54
-36 -89 -73 -34 -37 -84 -80 -111 -95 -89 -48 -260 -74 -293 -44 -11 9 -11 8
0 -7 14 -18 13 -19 -3 -13 -11 4 -30 10 -43 13 -13 3 -21 10 -18 15 3 5 -1 6
-9 3 -8 -3 -18 0 -22 5 -3 6 -11 9 -16 5 -6 -3 -21 4 -35 17 -25 23 -33 46
-12 33 7 -4 8 -3 4 5 -4 6 -11 9 -16 6 -13 -8 -59 65 -76 122 -8 26 -15 84
-16 128 -1 71 -2 75 -8 31 -34 -257 208 -492 461 -447 138 24 252 108 312 231
30 61 32 71 32 175 -1 100 -3 115 -29 167 -15 31 -35 63 -44 70 -11 8 -9 3 5
-17z m-57 -479 c0 -21 -47 -66 -69 -66 -31 0 -33 16 -5 49 27 32 74 43 74 17z
m-499 -63 c13 -16 12 -17 -3 -4 -17 13 -22 21 -14 21 2 0 10 -8 17 -17z m46
-19 c-3 -3 -12 -4 -19 -1 -8 3 -5 6 6 6 11 1 17 -2 13 -5z"/>
<path d="M3520 2059 c-7 -11 -10 -23 -7 -25 2 -2 9 7 15 21 14 30 7 33 -8 4z"/>
<path d="M3806 2058 c-53 -45 1 -84 78 -57 36 12 41 18 41 44 0 29 -2 30 -46
33 -37 2 -52 -2 -73 -20z"/>
<path d="M3486 1985 c-3 -9 -6 -22 -5 -28 0 -7 5 -1 10 12 5 13 8 26 5 28 -2
2 -6 -3 -10 -12z"/>
<path d="M3837 1954 c-54 -17 -67 -36 -43 -63 22 -24 23 -143 1 -161 -39 -32
-3 -60 78 -60 39 0 62 6 78 19 23 18 23 20 7 38 -14 15 -18 42 -20 128 -3 109
-3 110 -28 112 -14 1 -47 -5 -73 -13z"/>
<path d="M5155 2170 c10 -11 20 -20 23 -20 3 0 -3 9 -13 20 -10 11 -20 20 -23
20 -3 0 3 -9 13 -20z"/>
<path d="M5260 2045 c35 -69 56 -185 40 -216 -6 -11 -8 -25 -4 -32 4 -6 4 -9
-1 -5 -4 4 -14 0 -23 -8 -13 -13 -13 -17 -1 -24 10 -7 7 -11 -14 -19 -16 -6
-25 -16 -22 -21 4 -6 3 -9 -2 -8 -4 1 -37 -27 -73 -63 -86 -87 -165 -120 -291
-122 -48 -1 -85 -5 -82 -9 6 -12 -3 -10 -44 7 -20 9 -45 12 -56 9 -15 -5 -19
-3 -14 9 4 11 1 14 -7 11 -19 -7 -79 65 -117 141 -31 63 -34 76 -34 164 0 91
0 93 -9 42 -19 -112 29 -247 121 -339 59 -59 128 -95 220 -112 176 -34 379 80
444 251 45 120 27 294 -41 379 -13 16 -9 3 10 -35z m-73 -451 c6 -17 -48 -64
-73 -64 -13 0 -24 3 -24 8 0 10 31 55 44 65 15 10 49 4 53 -9z m-447 -80 c0
-2 -7 -4 -15 -4 -8 0 -15 4 -15 10 0 5 7 7 15 4 8 -4 15 -8 15 -10z"/>
<path d="M4798 2008 c-54 -40 -100 -79 -103 -87 -3 -7 6 -28 20 -47 22 -28 25
-43 25 -107 0 -83 12 -104 55 -93 25 6 25 7 25 114 l0 109 44 31 c24 18 47 32
51 32 3 0 26 -15 50 -32 l44 -33 3 -110 3 -110 30 0 30 0 3 80 c3 71 6 84 32
117 35 43 32 55 -15 86 -32 20 -35 26 -35 72 l0 50 -44 0 c-24 0 -46 -5 -48
-11 -3 -9 -9 -9 -25 0 -12 6 -28 11 -35 11 -7 0 -57 -33 -110 -72z"/>
<path d="M4535 2013 c-9 -20 -14 -40 -13 -45 2 -5 11 11 20 37 20 54 15 61 -7
8z"/>
<path d="M4859 1793 c-12 -87 0 -113 51 -113 53 0 60 8 60 66 l0 54 -55 0
c-30 0 -55 -3 -56 -7z"/>
<path d="M995 1163 c6 -5 33 -30 60 -54 37 -32 42 -35 20 -10 -16 18 -43 42
-60 54 -16 11 -25 16 -20 10z"/>
<path d="M489 1123 c-13 -16 -12 -17 4 -4 9 7 17 15 17 17 0 8 -8 3 -21 -13z"/>
<path d="M790 1050 c-12 -8 -15 -35 -15 -137 l0 -128 -24 3 c-37 4 -90 -17
-107 -43 -50 -76 79 -140 155 -77 19 15 21 28 22 129 0 62 4 115 9 118 14 9
40 -37 34 -60 -3 -14 2 -28 16 -40 22 -19 22 -19 36 0 8 10 14 38 14 62 0 38
-6 50 -56 106 -32 34 -60 65 -63 69 -3 4 -13 3 -21 -2z"/>
<path d="M1119 1023 c11 -21 25 -56 32 -78 16 -53 17 -177 1 -183 -7 -2 -12
-8 -12 -13 0 -6 4 -7 10 -4 6 3 7 -1 4 -10 -5 -12 -9 -13 -21 -3 -12 10 -17 9
-23 -3 -51 -91 -169 -186 -263 -213 -52 -14 -246 -28 -227 -16 6 4 -3 7 -19 7
l-30 0 21 -19 c27 -23 16 -23 -20 -1 -56 36 -112 88 -108 100 3 7 0 12 -6 10
-17 -3 -67 101 -79 167 -6 32 -8 82 -5 110 5 45 4 47 -4 16 -6 -19 -7 -65 -4
-102 12 -137 103 -267 231 -330 124 -61 292 -48 409 33 167 115 224 362 123
534 -28 47 -36 45 -10 -2z m-72 -450 c6 -18 -47 -73 -67 -70 -30 5 -34 14 -16
42 25 38 74 55 83 28z"/>
<path d="M407 1013 c-4 -3 -7 -11 -7 -17 0 -6 5 -5 12 2 6 6 9 14 7 17 -3 3
-9 2 -12 -2z"/>
<path d="M386 965 c-3 -9 -6 -22 -5 -28 0 -7 5 -1 10 12 5 13 8 26 5 28 -2 2
-6 -3 -10 -12z"/>
<path d="M2105 1110 c21 -22 41 -40 44 -40 3 0 -13 18 -34 40 -21 22 -41 40
-44 40 -3 0 13 -18 34 -40z"/>
<path d="M1529 1113 c-13 -16 -12 -17 4 -4 16 13 21 21 13 21 -2 0 -10 -8 -17
-17z"/>
<path d="M1456 1007 c-101 -206 -15 -452 193 -551 61 -29 74 -31 172 -31 101
0 108 1 181 38 200 98 283 333 189 533 -36 77 -50 86 -16 10 31 -70 46 -153
38 -216 -5 -45 -7 -48 -19 -33 -13 16 -13 15 -5 -8 7 -19 6 -26 -2 -26 -32 1
-47 -4 -47 -16 0 -20 -103 -122 -152 -151 -64 -37 -157 -58 -243 -54 -41 2
-71 -1 -68 -6 4 -5 -6 -6 -22 -2 -26 7 -27 6 -14 -10 13 -16 12 -16 -19 0 -48
25 -126 102 -116 117 4 7 3 10 -4 5 -18 -11 -71 112 -78 184 -7 74 13 171 47
229 11 18 18 35 15 38 -2 2 -16 -20 -30 -50z m638 -433 c7 -18 -44 -74 -69
-74 -41 0 -19 60 30 81 29 11 32 11 39 -7z"/>
<path d="M1630 1032 c-6 -2 -10 -82 -10 -208 l0 -204 205 0 205 0 0 205 0 204
-195 3 c-107 2 -200 2 -205 0z m285 -82 c20 -22 14 -67 -10 -77 -51 -19 -95
38 -60 77 23 25 47 25 70 0z m-98 -127 c49 -55 52 -57 70 -40 11 9 24 17 29
17 11 0 64 -82 64 -99 0 -12 -301 -17 -313 -5 -6 7 83 183 93 184 3 0 28 -25
57 -57z"/>
<path d="M3200 1007 c24 -51 33 -86 37 -147 4 -52 2 -80 -5 -80 -16 0 -24 -32
-10 -43 9 -6 8 -7 -4 -3 -11 3 -26 -5 -41 -22 -130 -146 -159 -168 -255 -196
-29 -8 -94 -16 -145 -17 -51 -1 -98 -6 -106 -13 -11 -8 -13 -8 -8 0 8 14 -17
26 -36 18 -13 -5 -90 68 -113 107 -44 76 -57 117 -61 193 -5 68 -1 93 19 153
13 39 21 70 16 67 -4 -3 -17 -37 -29 -75 -67 -221 57 -452 275 -514 42 -12 83
-16 140 -13 287 15 468 326 339 583 -38 77 -48 79 -13 2z m-80 -434 c-1 -43
-74 -90 -87 -56 -4 10 5 26 25 45 37 32 62 36 62 11z"/>
<path d="M2693 983 c-13 -2 -23 -10 -23 -16 0 -7 -9 -18 -20 -25 -18 -11 -20
-23 -20 -125 0 -61 4 -118 8 -125 7 -9 56 -12 213 -10 l204 3 0 130 0 130
-139 3 c-103 2 -142 6 -150 16 -13 17 -43 24 -73 19z m221 -114 c14 -17 26
-42 26 -56 0 -36 -51 -83 -90 -83 -37 0 -90 47 -90 80 0 52 38 89 92 90 28 0
42 -7 62 -31z"/>
<path d="M4160 1105 c19 -19 36 -35 39 -35 3 0 -10 16 -29 35 -19 19 -36 35
-39 35 -3 0 10 -16 29 -35z"/>
<path d="M4219 1029 c29 -48 54 -165 47 -217 -6 -46 -31 -92 -50 -92 -7 0 -19
-12 -27 -26 -23 -44 -121 -126 -188 -157 -53 -25 -82 -31 -170 -37 -58 -4
-118 -3 -133 1 -16 4 -28 4 -28 -2 0 -5 -5 -9 -11 -9 -5 0 -7 5 -4 10 4 6 2 9
-3 8 -15 -4 -93 72 -86 83 3 5 0 8 -6 7 -19 -5 -71 108 -80 170 -10 75 2 159
34 227 14 30 23 55 20 55 -12 0 -56 -114 -64 -167 -27 -168 70 -348 229 -426
62 -30 72 -32 176 -32 101 0 115 3 170 30 77 37 163 123 201 200 26 55 29 69
29 170 0 94 -4 118 -24 162 -13 29 -30 58 -38 65 -9 7 -7 -2 6 -23z m-69 -463
c0 -18 -53 -66 -73 -66 -36 0 -16 57 27 75 33 14 46 12 46 -9z m-424 -91 c19
-19 14 -19 -22 0 -21 11 -24 15 -11 15 10 0 25 -7 33 -15z"/>
<path d="M3702 944 c13 -13 163 -104 171 -104 11 0 177 99 177 106 0 2 -79 4
-177 4 -97 0 -174 -3 -171 -6z"/>
<path d="M3660 811 c0 -99 3 -120 16 -125 27 -10 374 -7 395 4 17 10 19 22 19
125 0 63 -3 115 -6 115 -4 0 -51 -27 -104 -60 -53 -33 -101 -60 -105 -60 -4 0
-52 27 -105 60 -53 33 -100 60 -104 60 -3 0 -6 -54 -6 -119z"/>
<path d="M5190 1115 c19 -19 36 -35 39 -35 3 0 -10 16 -29 35 -19 19 -36 35
-39 35 -3 0 10 -16 29 -35z"/>
<path d="M4557 1031 c-9 -16 -17 -33 -17 -38 0 -4 9 7 21 26 11 18 18 35 17
37 -2 2 -12 -10 -21 -25z"/>
<path d="M5255 1030 c9 -16 18 -30 21 -30 2 0 -2 14 -11 30 -9 17 -18 30 -21
30 -2 0 2 -13 11 -30z"/>
<path d="M4790 1012 c0 -10 -12 -22 -30 -29 -17 -6 -34 -23 -40 -38 -22 -57
26 -155 76 -155 12 0 38 -16 58 -36 38 -38 45 -54 23 -54 -19 0 -57 -43 -57
-63 0 -15 13 -17 99 -17 l100 0 -10 28 c-5 15 -23 36 -39 46 -35 20 -38 32
-11 41 11 3 26 17 35 30 9 14 25 25 36 25 10 0 31 11 47 24 25 22 28 31 28 88
0 61 -1 63 -32 78 -18 8 -33 23 -33 33 0 15 -13 17 -125 17 -113 0 -125 -2
-125 -18z m142 -47 c8 -18 19 -25 40 -25 33 0 37 -19 9 -44 -15 -14 -18 -23
-11 -42 11 -29 -1 -38 -33 -23 -18 8 -30 8 -46 0 -29 -16 -42 -6 -31 24 8 20
5 27 -12 39 -26 19 -17 46 16 46 17 0 26 7 30 25 4 14 11 25 16 25 6 0 16 -11
22 -25z m-137 -52 c3 -21 8 -46 10 -56 5 -28 -26 -17 -44 15 -12 21 -13 31 -3
52 16 37 30 32 37 -11z m275 17 c12 -23 4 -64 -16 -81 -22 -18 -27 -5 -19 50
7 54 18 63 35 31z"/>
<path d="M5281 990 c-1 -3 6 -38 14 -78 16 -78 12 -131 -13 -169 -8 -13 -21
-23 -28 -23 -8 0 -14 -4 -14 -9 0 -21 -128 -140 -175 -163 -82 -41 -134 -50
-249 -46 -91 3 -106 1 -101 -12 3 -8 -2 -6 -10 5 -9 11 -19 20 -23 20 -13 0
-72 46 -72 56 0 6 6 7 13 3 7 -4 9 -3 4 2 -5 5 -14 9 -20 9 -7 0 -26 24 -44
53 -53 89 -63 210 -29 327 4 11 0 7 -8 -10 -22 -46 -29 -136 -16 -202 27 -131
112 -241 230 -296 131 -63 299 -45 417 44 63 47 93 86 130 164 25 53 28 71 28
160 -1 71 -6 110 -17 135 -9 19 -17 33 -17 30z m-99 -425 c-5 -30 -44 -66 -67
-63 -27 4 -22 36 12 66 30 27 60 25 55 -3z m-412 -75 c8 -5 11 -10 5 -10 -5 0
-17 5 -25 10 -8 5 -10 10 -5 10 6 0 17 -5 25 -10z"/>
</g>
</svg>
